<svg width="46" height="46" viewBox="0 0 46 46" fill="none" xmlns="http://www.w3.org/2000/svg">
<g clip-path="url(#clip0_62_212)">
<path d="M15.874 0.592773C15.083 0.953125 14.8633 1.4541 14.8633 2.83398V3.83594L12.3408 3.87109C10.249 3.90625 9.72168 3.94141 9.33496 4.06445C7.80566 4.55664 6.68066 5.75195 6.30273 7.29004C6.17969 7.80859 6.16211 9.50488 6.16211 24.6924C6.16211 39.3174 6.17969 41.585 6.29395 42.0244C6.71582 43.6504 7.9375 44.8721 9.56348 45.2939C9.99414 45.4082 11.8838 45.4258 23.4678 45.4258C35.5 45.4258 36.9238 45.4082 37.4424 45.2852C38.9805 44.9072 40.1406 43.8174 40.668 42.2617C40.8262 41.7959 40.835 41.1543 40.835 24.7275C40.835 6.16504 40.8701 7.36035 40.3428 6.29688C40.0176 5.65527 39.2529 4.8291 38.6904 4.53027C37.6182 3.94141 37.46 3.91504 34.709 3.87109L32.1953 3.83594L32.1602 2.71973C32.1338 1.73535 32.1074 1.57715 31.9229 1.27832C31.8086 1.09375 31.5537 0.838867 31.3604 0.707031L31 0.469727L23.6172 0.452148C16.5771 0.425781 16.208 0.43457 15.874 0.592773ZM28.6621 5.65527V7.36914H23.5205H18.3789V5.65527V3.94141H23.5205H28.6621V5.65527ZM14.8633 8.56445C14.9072 9.62793 14.9248 9.7334 15.1533 10.0762C15.2852 10.2783 15.5576 10.5332 15.7686 10.6387L16.1377 10.8408L23.2129 10.8672C27.1064 10.8848 30.4551 10.8672 30.6484 10.8408C31.1934 10.7617 31.7119 10.3838 31.958 9.88281C32.1514 9.4873 32.1777 9.33789 32.1777 8.39746V7.36035L34.4453 7.38672C37.0029 7.41309 37.0996 7.43945 37.2666 8.0459C37.3369 8.27441 37.3633 13.6357 37.3633 24.7275C37.3633 40.1172 37.3545 41.0928 37.2051 41.3828C37.126 41.5498 36.959 41.7344 36.8359 41.7959C36.6602 41.8838 33.8564 41.9014 23.415 41.8838L10.2051 41.8662L9.96777 41.6201L9.72168 41.3828V24.6484C9.72168 8.27441 9.72168 7.91406 9.88867 7.72949C9.98535 7.62402 10.1787 7.50977 10.3281 7.46582C10.4775 7.42188 11.5498 7.38672 12.71 7.39551L14.8193 7.41309L14.8633 8.56445Z" fill="white"/>
<path d="M29.7164 20.6056C29.523 20.6847 27.8883 22.2492 25.3043 24.8419L21.191 28.9464L19.4156 27.171C18.4312 26.2042 17.4996 25.3429 17.3326 25.255C16.9019 25.0353 16.0406 25.1056 15.6363 25.3781C15.1793 25.6945 14.9244 26.1164 14.8804 26.6613C14.8101 27.5314 14.8541 27.5929 17.4908 30.2472C18.8267 31.5919 20.0748 32.7873 20.2681 32.9015C20.734 33.174 21.1646 33.2443 21.6392 33.1212C21.9908 33.0334 22.5094 32.5412 26.939 28.1291C30.2525 24.8156 31.8961 23.1193 32.0103 22.882C32.4146 22.0031 32.0103 20.9835 31.1051 20.5968C30.692 20.4298 30.1207 20.4298 29.7164 20.6056Z" fill="white"/>
</g>
<defs>
<clipPath id="clip0_62_212">
<rect width="45" height="45" fill="white" transform="translate(0.976562 0.425781)"/>
</clipPath>
</defs>
</svg>
