<svg width="139" height="90" viewBox="0 0 139 90" fill="none" xmlns="http://www.w3.org/2000/svg">
<g clip-path="url(#clip0_44_33239)">
<path d="M0.332031 27.1687H9.95083L13.676 41.7937L17.4012 27.1687H27.02V51.2437H21.0708V32.9062L16.4004 51.2437H10.9516L6.33683 32.9062V51.2437H0.332031V27.1687Z" fill="black"/>
<path d="M29.6328 33.8062H36.2492V51.2437H29.6328V33.8062Z" fill="black"/>
<path d="M56.6549 27.1687V51.1875H50.4833V48.6C49.5937 49.6687 48.8153 50.4562 48.0925 50.7937C47.1473 51.3 46.0909 51.525 44.9233 51.525C42.5881 51.525 40.8089 50.625 39.5301 48.825C38.3069 47.025 37.6953 44.8312 37.6953 42.2437C37.6953 39.375 38.3625 37.125 39.7525 35.6062C41.1425 34.0875 42.8661 33.3 44.9789 33.3C46.0353 33.3 46.9249 33.4687 47.7589 33.8062C48.5929 34.1437 49.3157 34.7062 49.9829 35.3812V27.1687H56.6549ZM50.0385 42.4687C50.0385 41.1187 49.7605 40.1062 49.2045 39.4312C48.6485 38.7562 47.9257 38.4187 47.0361 38.4187C46.2577 38.4187 45.6461 38.7562 45.0901 39.375C44.5897 39.9937 44.3117 41.1187 44.3117 42.6375C44.3117 44.0437 44.5897 45.1125 45.0901 45.7875C45.6461 46.4625 46.3133 46.8 47.0917 46.8C47.9257 46.8 48.6485 46.4625 49.2045 45.7875C49.7605 45.0562 50.0385 43.9875 50.0385 42.4687Z" fill="black"/>
<path d="M57.1562 33.8062H63.5503L66.3303 44.7749L69.833 33.8062H75.7823L79.3963 44.7749L82.1763 33.8062H88.5147L82.1763 51.2437H76.3383L72.8355 40.7249L69.4994 51.2437H63.5503L57.1562 33.8062Z" fill="black"/>
<path d="M107.308 44.1562H94.0753C94.1865 45.225 94.4645 46.0125 94.9093 46.575C95.5209 47.3063 96.3548 47.7 97.4113 47.7C98.0785 47.7 98.6901 47.5313 99.2461 47.1938C99.5797 46.9688 99.9689 46.6313 100.414 46.125L106.919 46.7437C105.918 48.4875 104.75 49.725 103.305 50.5125C101.915 51.2438 99.9132 51.6375 97.2444 51.6375C94.9648 51.6375 93.1857 51.3 91.8513 50.6812C90.5169 50.0062 89.4604 48.9937 88.6264 47.5875C87.7924 46.1812 87.3477 44.4937 87.3477 42.5812C87.3477 39.8812 88.1817 37.6312 89.9053 36C91.6289 34.3125 94.0197 33.4688 97.0777 33.4688C99.5241 33.4688 101.47 33.8625 102.916 34.5938C104.361 35.325 105.418 36.45 106.196 37.8563C106.919 39.2625 107.308 41.175 107.308 43.425V44.1562ZM100.58 40.95C100.469 39.6563 100.08 38.7563 99.5241 38.1938C98.9681 37.6313 98.2453 37.35 97.3001 37.35C96.2437 37.35 95.4097 37.8 94.7981 38.5875C94.4089 39.0937 94.1309 39.8813 94.0197 40.95H100.58Z" fill="black"/>
<path d="M107.252 46.4061L113.813 45.7874C114.091 46.5749 114.48 47.1374 114.925 47.4749C115.425 47.8124 116.037 47.9811 116.871 47.9811C117.76 47.9811 118.428 47.8124 118.928 47.4186C119.317 47.1374 119.484 46.7999 119.484 46.3499C119.484 45.8436 119.262 45.5061 118.761 45.2249C118.428 45.0561 117.482 44.8311 115.926 44.5499C113.646 44.1561 112.034 43.7624 111.144 43.4249C110.254 43.0874 109.476 42.4686 108.92 41.6811C108.308 40.8374 108.03 39.9374 108.03 38.8686C108.03 37.7436 108.364 36.7311 109.031 35.8874C109.698 35.0436 110.588 34.4249 111.756 34.0311C112.923 33.6374 114.48 33.4124 116.426 33.4124C118.483 33.4124 119.984 33.5811 120.985 33.8624C121.986 34.1999 122.764 34.6499 123.432 35.3249C124.099 35.9999 124.599 36.8999 125.044 38.0249L118.761 38.6436C118.594 38.0811 118.316 37.6874 117.927 37.4061C117.427 37.0686 116.76 36.8999 116.037 36.8999C115.314 36.8999 114.758 37.0124 114.424 37.2936C114.091 37.5749 113.924 37.9124 113.924 38.2499C113.924 38.6999 114.146 38.9811 114.591 39.2061C115.036 39.4311 115.981 39.5999 117.427 39.8249C119.595 40.0499 121.263 40.4436 122.32 40.8936C123.376 41.3436 124.21 41.9624 124.766 42.8061C125.322 43.6499 125.6 44.5499 125.6 45.5624C125.6 46.5749 125.322 47.5311 124.71 48.4874C124.099 49.4436 123.154 50.1749 121.875 50.7374C120.596 51.2999 118.817 51.5811 116.593 51.5811C113.424 51.5811 111.2 51.1311 109.865 50.2311C108.531 49.3874 107.641 48.0936 107.252 46.4061Z" fill="black"/>
<path d="M134.773 27.1687V33.8062H138.387V38.7H134.773V44.8875C134.773 45.6187 134.828 46.125 134.995 46.35C135.218 46.7437 135.607 46.9125 136.107 46.9125C136.608 46.9125 137.275 46.7437 138.164 46.4625L138.665 51.075C137.052 51.4125 135.496 51.6375 134.106 51.6375C132.438 51.6375 131.27 51.4125 130.492 51.0187C129.713 50.5687 129.157 49.95 128.768 49.1062C128.379 48.2625 128.212 46.8 128.212 44.8875V38.7H125.766V33.8062H128.212V30.6L134.773 27.1687Z" fill="black"/>
<path d="M2.16709 56.8124V57.9374H4.78029V59.0624H2.16709V60.2436H5.00269V61.5936H0.554688V55.4061H4.94709V56.7561H2.16709V56.8124ZM7.44909 55.4624V60.2436H10.0067V61.6499H5.78109V55.4624H7.44909ZM12.2307 56.8124V57.9374H14.8439V59.0624H12.2307V60.2436H15.0663V61.5936H10.6183V55.4061H15.0107V56.7561H12.2307V56.8124ZM19.4587 59.2874H21.0711V59.4561C21.0711 59.6249 21.0711 59.8499 21.0711 60.0186C21.0711 60.1874 21.0155 60.3561 21.0155 60.5249C20.9599 60.6936 20.9043 60.8624 20.7931 60.9749C20.6819 61.0874 20.5151 61.2561 20.3483 61.3686C20.2371 61.4249 20.1259 61.4811 20.0703 61.5374C19.9591 61.5936 19.8479 61.5936 19.7367 61.5936C19.6811 61.5936 19.6255 61.5936 19.5699 61.5936C19.5143 61.5936 19.4587 61.5936 19.4031 61.5936C19.3475 61.5936 19.2919 61.5936 19.2363 61.5936C19.1807 61.5936 19.1251 61.5936 19.0695 61.5936H19.0139H18.9583C18.9583 61.5936 18.9583 61.5936 18.9027 61.5936C18.9027 61.5936 18.9027 61.5936 18.8471 61.5936C18.7915 61.5936 18.7359 61.5936 18.6803 61.5936C18.6247 61.5936 18.5691 61.5936 18.5135 61.5936C18.4579 61.5936 18.4579 61.5936 18.4023 61.5936C18.3467 61.5936 18.3467 61.5936 18.2911 61.5936H18.2355C18.2355 61.5936 18.1799 61.5936 18.1243 61.5936C18.0687 61.5936 18.0687 61.5936 18.0131 61.5936C17.9575 61.5936 17.9575 61.5936 17.9575 61.5936C17.9019 61.5936 17.9019 61.5936 17.8463 61.5936C17.8463 61.5936 17.7907 61.5936 17.7351 61.5936C17.6795 61.5936 17.6239 61.5936 17.5683 61.5936C17.5127 61.5936 17.4571 61.5936 17.4015 61.5936C17.0123 61.5374 16.6787 61.4811 16.4007 61.3124C16.1783 61.1436 16.0115 60.9749 15.9003 60.6936C15.7891 60.4124 15.7335 60.1311 15.6779 59.8499C15.6223 59.5686 15.6223 59.2311 15.5667 58.8936V58.0499C15.5667 57.5436 15.6223 57.0936 15.7335 56.7561C15.8447 56.4186 16.0115 56.1374 16.1783 55.9124C16.4007 55.7436 16.6787 55.5749 17.0123 55.5186C17.3459 55.4061 17.7907 55.3499 18.2911 55.3499H18.7915H18.8471H18.9027H18.9583H19.0139C19.1807 55.3499 19.3475 55.3499 19.5143 55.4061C19.6811 55.4061 19.7923 55.4624 19.9591 55.5186C20.1259 55.5749 20.2371 55.6311 20.3483 55.7436C20.4595 55.8561 20.5707 55.9686 20.6263 56.1374C20.6819 56.1936 20.6819 56.3061 20.7375 56.3624C20.7375 56.4186 20.7931 56.5311 20.7931 56.5874C20.7931 56.6436 20.7931 56.6999 20.7931 56.6999C20.7931 56.7561 20.7931 56.7561 20.7931 56.8124C20.7931 56.8686 20.7931 56.9249 20.7931 56.9249C20.7931 56.9811 20.7931 56.9811 20.7931 57.0374V57.0936V57.1499C20.7931 57.1499 20.7931 57.1499 20.7931 57.2061C20.7931 57.2061 20.7931 57.2061 20.7931 57.2624C20.7931 57.2624 20.7931 57.2624 20.7931 57.3186C20.7931 57.3186 20.7931 57.3186 20.7931 57.3749V57.4874H19.1251C19.1251 57.3186 19.1251 57.2061 19.0695 57.0936C19.0139 56.9811 19.0139 56.9249 18.9583 56.8686C18.9027 56.8124 18.7915 56.7561 18.7359 56.6999C18.6247 56.6436 18.5135 56.6436 18.3467 56.6436H18.0687C18.0687 56.6436 18.0687 56.6436 18.0131 56.6436C18.0131 56.6436 18.0131 56.6436 17.9575 56.6436C17.9575 56.6436 17.9575 56.6436 17.9019 56.6436C17.9019 56.6436 17.9019 56.6436 17.8463 56.6436C17.8463 56.6436 17.8463 56.6436 17.7907 56.6436C17.7907 56.6436 17.7907 56.6436 17.7351 56.6436C17.7351 56.6436 17.7351 56.6436 17.6795 56.6436C17.6239 56.6436 17.5683 56.6436 17.5127 56.6436C17.4571 56.6436 17.4015 56.6436 17.3459 56.6999C17.2903 56.6999 17.2903 56.7561 17.2347 56.7561C17.1791 56.7561 17.1791 56.8124 17.1235 56.8686C17.0679 56.9249 17.0679 56.9249 17.0679 56.9811C17.0679 57.0374 17.0123 57.0374 17.0123 57.0936C17.0123 57.1499 17.0123 57.2061 17.0123 57.2061C17.0123 57.2624 17.0123 57.3186 17.0123 57.3186V57.3749V57.4311V57.4874V57.5436V57.5999V57.6561V57.7124V57.7686C17.0123 57.8249 17.0123 57.8811 17.0123 57.8811C17.0123 57.9374 17.0123 57.9936 17.0123 58.0499C17.0123 58.1061 17.0123 58.1624 17.0123 58.1624C17.0123 58.2186 17.0123 58.2749 17.0123 58.2749C17.0123 58.2749 17.0123 58.2749 17.0123 58.3311V58.3874C17.0123 58.3874 17.0123 58.3874 17.0123 58.4436C17.0123 58.4436 17.0123 58.4436 17.0123 58.4999V58.5561C17.0123 58.5561 17.0123 58.5561 17.0123 58.6124C17.0123 58.6124 17.0123 58.6124 17.0123 58.6686V58.7249C17.0123 58.9499 17.0123 59.1186 17.0679 59.2874C17.1235 59.4561 17.1235 59.5686 17.2347 59.6249C17.2903 59.6811 17.4015 59.7936 17.5683 59.7936C17.7351 59.8499 17.9019 59.8499 18.1243 59.8499C18.2911 59.8499 18.4023 59.8499 18.5691 59.7936C18.6803 59.7936 18.7915 59.7374 18.9027 59.6811C19.0139 59.6249 19.0695 59.5686 19.1251 59.4561C19.1807 59.3436 19.1807 59.1749 19.1807 59.0061C19.4587 59.3999 19.4587 59.3999 19.4587 59.2874ZM24.4627 56.9249V61.6499H22.8503V56.9249H21.2935V55.5186H26.1307V56.9249H24.4627ZM26.6867 61.6499V55.4624H29.7447C30.1339 55.4624 30.4675 55.5186 30.7455 55.5749C31.0235 55.6311 31.2459 55.7436 31.4127 55.8561C31.5795 55.9686 31.6907 56.1936 31.8019 56.4749C31.9131 56.7561 31.9131 57.0936 31.9131 57.4874C31.9131 57.7124 31.9131 57.9374 31.8575 58.1061C31.8575 58.2749 31.8019 58.4436 31.7463 58.6124C31.6907 58.7811 31.5795 58.8936 31.4127 59.0061C31.2459 59.1186 31.0235 59.1749 30.7455 59.2311V59.2874C30.9123 59.2874 31.0791 59.3436 31.2459 59.3999C31.3571 59.4561 31.5239 59.5686 31.5795 59.6249C31.6907 59.7374 31.7463 59.8499 31.8019 60.0186C31.8575 60.1874 31.8575 60.3561 31.8575 60.5249V61.6499H30.1895V60.8061C30.1895 60.6936 30.1895 60.5811 30.1339 60.4686C30.1339 60.3561 30.0783 60.2999 30.0227 60.1874C29.9671 60.1311 29.9115 60.0749 29.8003 60.0186C29.6891 59.9624 29.5779 59.9624 29.4667 59.9624H28.2435V61.5936H26.6867V61.6499ZM28.3547 58.6124H29.6335C29.6335 58.6124 29.6335 58.6124 29.6891 58.6124C29.6891 58.6124 29.6891 58.6124 29.7447 58.6124C29.8559 58.6124 29.9671 58.6124 30.0783 58.5561C30.1339 58.4999 30.1895 58.4436 30.2451 58.3874C30.3007 58.3311 30.3007 58.2186 30.3007 58.1061C30.3007 57.9936 30.3007 57.8811 30.3007 57.7686C30.3007 57.5999 30.3007 57.4874 30.3007 57.3749C30.3007 57.2624 30.2451 57.1499 30.2451 57.0936C30.1895 57.0374 30.1339 56.9811 30.0227 56.9249C29.9115 56.8686 29.8003 56.8686 29.6335 56.8686H28.4103V58.6124H28.3547ZM34.4151 55.4624V61.6499H32.8027V55.4624H34.4151ZM38.9743 59.2874H40.5867V59.4561C40.5867 59.6249 40.5867 59.8499 40.5867 60.0186C40.5867 60.1874 40.5311 60.3561 40.5311 60.5249C40.5311 60.6936 40.4199 60.8624 40.3087 60.9749C40.1975 61.0874 40.0307 61.2561 39.8639 61.3686C39.7527 61.4249 39.6415 61.4811 39.5859 61.5374C39.4747 61.5936 39.3635 61.5936 39.2523 61.5936C39.1967 61.5936 39.1411 61.5936 39.0855 61.5936C39.0299 61.5936 38.9743 61.5936 38.9187 61.5936C38.8631 61.5936 38.8075 61.5936 38.7519 61.5936C38.6963 61.5936 38.6407 61.5936 38.5851 61.5936C38.5851 61.5936 38.5851 61.5936 38.5295 61.5936C38.5295 61.5936 38.5295 61.5936 38.4739 61.5936C38.4739 61.5936 38.4739 61.5936 38.4183 61.5936H38.3627C38.3071 61.5936 38.2515 61.5936 38.1959 61.5936C38.1403 61.5936 38.0847 61.5936 38.0291 61.5936C37.9735 61.5936 37.9735 61.5936 37.9179 61.5936C37.9179 61.5936 37.8623 61.5936 37.8067 61.5936H37.7511C37.6955 61.5936 37.6955 61.5936 37.6399 61.5936C37.5843 61.5936 37.5843 61.5936 37.5287 61.5936C37.4731 61.5936 37.4731 61.5936 37.4175 61.5936C37.3619 61.5936 37.3619 61.5936 37.3063 61.5936C37.3063 61.5936 37.2507 61.5936 37.1951 61.5936C37.1395 61.5936 37.0839 61.5936 37.0283 61.5936C36.9727 61.5936 36.9171 61.5936 36.8615 61.5936C36.4723 61.5374 36.1387 61.4811 35.9163 61.3124C35.6939 61.1436 35.5271 60.9749 35.4159 60.6936C35.3047 60.4124 35.2491 60.1311 35.1935 59.8499C35.1379 59.5686 35.1379 59.2311 35.0823 58.8936V58.0499C35.0823 57.5436 35.1379 57.0936 35.2491 56.7561C35.3603 56.4186 35.4715 56.1374 35.6939 55.9124C35.9163 55.7436 36.1943 55.5749 36.5279 55.5186C36.8615 55.4061 37.3063 55.3499 37.8067 55.3499H38.3071H38.3627H38.4183H38.4739H38.5295C38.6963 55.3499 38.8631 55.3499 38.9743 55.4061C39.1411 55.4061 39.3079 55.4624 39.4191 55.5186C39.5859 55.5749 39.6971 55.6311 39.8083 55.7436C39.9195 55.8561 40.0307 55.9686 40.0863 56.1374C40.1419 56.1936 40.1419 56.3061 40.1975 56.3624C40.1975 56.4186 40.2531 56.5311 40.2531 56.5874C40.2531 56.6436 40.2531 56.6999 40.2531 56.6999C40.2531 56.7561 40.2531 56.7561 40.2531 56.8124C40.2531 56.8686 40.2531 56.9249 40.2531 56.9249C40.2531 56.9811 40.2531 56.9811 40.2531 57.0374V57.0936V57.1499C40.2531 57.1499 40.2531 57.1499 40.2531 57.2061C40.2531 57.2061 40.2531 57.2061 40.2531 57.2624C40.2531 57.2624 40.2531 57.2624 40.2531 57.3186C40.2531 57.3186 40.2531 57.3186 40.2531 57.3749V57.4874H38.5851C38.5851 57.3186 38.5851 57.2061 38.5295 57.0936C38.4739 56.9811 38.4739 56.9249 38.4183 56.8686C38.3627 56.8124 38.2515 56.7561 38.1403 56.6999C38.0291 56.6436 37.9179 56.6436 37.7511 56.6436H37.4731C37.4731 56.6436 37.4731 56.6436 37.4175 56.6436C37.4175 56.6436 37.4175 56.6436 37.3619 56.6436C37.3619 56.6436 37.3619 56.6436 37.3063 56.6436C37.3063 56.6436 37.3063 56.6436 37.2507 56.6436C37.2507 56.6436 37.2507 56.6436 37.1951 56.6436C37.1951 56.6436 37.1951 56.6436 37.1395 56.6436C37.1395 56.6436 37.1395 56.6436 37.0839 56.6436C37.0283 56.6436 36.9727 56.6436 36.9171 56.6436C36.8615 56.6436 36.8059 56.6436 36.7503 56.6999C36.6947 56.6999 36.6947 56.7561 36.6391 56.7561C36.5835 56.7561 36.5835 56.8124 36.5279 56.8686C36.4723 56.9249 36.4723 56.9249 36.4723 56.9811C36.4723 57.0374 36.4167 57.0374 36.4167 57.0936C36.4167 57.1499 36.4167 57.2061 36.4167 57.2061C36.4167 57.2624 36.4167 57.3186 36.4167 57.3186V57.3749V57.4311V57.4874V57.5436V57.5999V57.6561V57.7124V57.7686C36.4167 57.8249 36.4167 57.8811 36.4167 57.8811C36.4167 57.9374 36.4167 57.9936 36.4167 58.0499C36.4167 58.1061 36.4167 58.1624 36.4167 58.1624C36.4167 58.2186 36.4167 58.2749 36.4167 58.2749C36.4167 58.2749 36.4167 58.2749 36.4167 58.3311V58.3874C36.4167 58.3874 36.4167 58.3874 36.4167 58.4436C36.4167 58.4436 36.4167 58.4436 36.4167 58.4999V58.5561C36.4167 58.5561 36.4167 58.5561 36.4167 58.6124C36.4167 58.6124 36.4167 58.6124 36.4167 58.6686V58.7249C36.4167 58.9499 36.4167 59.1186 36.4723 59.2874C36.5279 59.4561 36.5279 59.5686 36.6391 59.6249C36.6947 59.6811 36.8059 59.7936 36.9727 59.7936C37.1395 59.8499 37.3063 59.8499 37.5287 59.8499C37.6955 59.8499 37.8067 59.8499 37.9735 59.7936C38.0847 59.7936 38.1959 59.7374 38.3071 59.6811C38.4183 59.6249 38.4739 59.5686 38.5295 59.4561C38.5851 59.3436 38.5851 59.1749 38.5851 59.0061C38.9743 59.3999 38.9743 59.3999 38.9743 59.2874ZM47.3699 60.5811H45.2015L44.9235 61.6499H43.1999L45.0347 55.4624H47.5367L49.3715 61.6499H47.7035L47.3699 60.5811ZM47.0919 59.3999L46.3135 56.6999L45.5907 59.3999H47.0919ZM55.8767 55.4624V61.6499H53.0967L51.3731 56.9249H51.3175L51.3731 61.6499H49.7607V55.4624H52.5407L54.2643 60.1311H54.3199L54.2643 55.4624H55.8767ZM56.8775 61.6499V55.4624H60.0467C60.4359 55.4624 60.7695 55.5186 61.0475 55.6311C61.3255 55.7436 61.6035 55.8561 61.7703 56.0249C61.9927 56.1936 62.1039 56.4749 62.2151 56.7561C62.3263 57.0374 62.3819 57.3749 62.3819 57.8249V58.5561C62.3819 58.9499 62.3819 59.3436 62.3263 59.7374C62.2707 60.1311 62.2151 60.4686 62.1039 60.7499C61.9927 61.0874 61.8259 61.3124 61.4923 61.4249C61.1587 61.5936 60.7695 61.6499 60.2691 61.6499H56.8775ZM58.5455 60.2436H59.8799C60.0467 60.2436 60.1579 60.2436 60.2135 60.1874C60.3247 60.1311 60.3803 60.0749 60.4915 60.0186C60.5471 59.9061 60.6027 59.8499 60.6583 59.7374C60.7139 59.6249 60.7139 59.5124 60.7139 59.3436V59.2874V59.2311V59.1749V59.1186C60.7139 59.0624 60.7139 59.0624 60.7139 59.0061C60.7139 58.9499 60.7139 58.9499 60.7139 58.8936C60.7139 58.8374 60.7139 58.8374 60.7139 58.7811C60.7139 58.7249 60.7139 58.7249 60.7139 58.6686C60.7139 58.6124 60.7139 58.5561 60.7139 58.5561C60.7139 58.4999 60.7139 58.4999 60.7139 58.4436C60.7139 58.3874 60.7139 58.3874 60.7139 58.3311C60.7139 58.2749 60.7139 58.2749 60.7139 58.2186V58.1624V58.1061C60.7139 58.1061 60.7139 58.1061 60.7139 58.0499V57.9936C60.7139 57.9374 60.7139 57.8811 60.7139 57.7686C60.7139 57.7124 60.7139 57.6561 60.7139 57.5999C60.7139 57.5436 60.6583 57.4874 60.6583 57.4311C60.6583 57.3749 60.6027 57.3186 60.6027 57.3186C60.5471 57.2624 60.5471 57.2061 60.4915 57.2061C60.4359 57.1499 60.3803 57.1499 60.3247 57.0936C60.2691 57.0936 60.2135 57.0374 60.1579 57.0374C60.1023 57.0374 60.0467 57.0374 59.9911 57.0374C59.9911 57.0374 59.9911 57.0374 59.9355 57.0374C59.9355 57.0374 59.9355 57.0374 59.8799 57.0374H58.5455V60.2436ZM68.3867 58.1624H71.1667V58.3311V59.3436C71.1667 59.6249 71.1667 59.9061 71.1111 60.1874C71.0555 60.4686 70.9999 60.6936 70.8887 60.9186C70.7775 61.1436 70.6663 61.3124 70.4439 61.4249C70.2215 61.5374 69.9435 61.6499 69.6099 61.6499C69.4987 61.6499 69.3875 61.6499 69.3319 61.6499C69.2207 61.6499 69.1651 61.6499 69.0539 61.6499C68.9983 61.6499 68.9427 61.6499 68.8871 61.6499C68.8315 61.6499 68.7759 61.6499 68.7203 61.6499C68.6647 61.6499 68.6091 61.6499 68.5535 61.6499C68.4979 61.6499 68.4423 61.6499 68.3867 61.6499C67.8863 61.6499 67.4971 61.5936 67.1635 61.5374C66.8299 61.4811 66.4963 61.3686 66.2739 61.1999C66.0515 61.0311 65.8291 60.8061 65.7179 60.4686C65.6067 60.1311 65.5511 59.6811 65.5511 59.1186C65.5511 59.1186 65.5511 59.0624 65.5511 59.0061C65.5511 58.9499 65.5511 58.9499 65.5511 58.8936C65.5511 58.8374 65.5511 58.8374 65.5511 58.7811C65.5511 58.7249 65.5511 58.7249 65.5511 58.6686C65.5511 58.6124 65.5511 58.6124 65.5511 58.5561C65.5511 58.4999 65.5511 58.4999 65.5511 58.4436V58.3874V58.3311C65.5511 58.3311 65.5511 58.3311 65.5511 58.2749V58.2186C65.5511 58.2186 65.5511 58.2186 65.5511 58.1624V58.1061C65.5511 58.1061 65.5511 58.1061 65.5511 58.0499C65.5511 57.9936 65.5511 57.9374 65.5511 57.9374C65.5511 57.8811 65.5511 57.8249 65.5511 57.8249V57.7686V57.7124V57.6561V57.5999C65.5511 57.4874 65.5511 57.3186 65.6067 57.2061C65.6067 57.0936 65.6623 56.9249 65.6623 56.8124C65.7179 56.6999 65.7179 56.5311 65.8291 56.4186C65.8847 56.3061 65.9959 56.1936 66.0515 56.0811C66.1627 55.9686 66.2739 55.8561 66.3851 55.7999C66.4963 55.7436 66.6631 55.6311 66.7743 55.6311C66.9411 55.5749 67.0523 55.5186 67.2191 55.5186C67.3859 55.5186 67.5527 55.4624 67.6639 55.4624C67.7195 55.4624 67.7195 55.4624 67.7751 55.4624C67.8307 55.4624 67.8307 55.4624 67.8863 55.4624H67.9419C67.9975 55.4624 67.9975 55.4624 68.0531 55.4624C68.1087 55.4624 68.1087 55.4624 68.1643 55.4624C68.2199 55.4624 68.2199 55.4624 68.2755 55.4624H68.3311C68.3867 55.4624 68.3867 55.4624 68.4423 55.4624C68.8315 55.4624 69.2207 55.4624 69.4987 55.5186C69.8323 55.5749 70.1103 55.6311 70.3327 55.6874C70.5551 55.7999 70.7775 55.9686 70.8887 56.2499C70.9999 56.5311 71.1111 56.9249 71.1111 57.3749H69.4431C69.4431 57.2624 69.3875 57.1499 69.3319 57.0936C69.2763 57.0374 69.2207 56.9811 69.1651 56.9249C69.1095 56.9249 69.0539 56.8686 68.9427 56.8686C68.8315 56.8686 68.7203 56.8686 68.6091 56.8686H68.3311H68.2755H68.2199C68.2199 56.8686 68.2199 56.8686 68.1643 56.8686C68.1643 56.8686 68.1643 56.8686 68.1087 56.8686C68.1087 56.8686 68.1087 56.8686 68.0531 56.8686C67.9975 56.8686 67.9419 56.8686 67.8863 56.8686C67.8307 56.8686 67.7751 56.8686 67.7195 56.9249C67.6639 56.9249 67.6083 56.9811 67.5527 56.9811C67.4971 56.9811 67.4415 57.0374 67.4415 57.0936C67.3859 57.1499 67.3303 57.2061 67.3303 57.2061C67.2747 57.2624 67.2747 57.3186 67.2747 57.3749C67.2747 57.4311 67.2191 57.4874 67.2191 57.5436C67.2191 57.5999 67.2191 57.6561 67.2191 57.7124V57.7686V57.8249V57.8811V57.9374V57.9936V58.0499C67.2191 58.0499 67.2191 58.0499 67.2191 58.1061C67.2191 58.1061 67.2191 58.1061 67.2191 58.1624C67.2191 58.1624 67.2191 58.1624 67.2191 58.2186V58.2749V58.3311C67.2191 58.3311 67.2191 58.3311 67.2191 58.3874C67.2191 58.3874 67.2191 58.3874 67.2191 58.4436C67.2191 58.4999 67.2191 58.6124 67.2191 58.6686C67.2191 58.7249 67.2191 58.8374 67.2191 58.9499C67.2191 59.0061 67.2191 59.1186 67.2191 59.1749C67.2191 59.2311 67.2191 59.3436 67.2191 59.4561C67.2191 59.6811 67.2747 59.7936 67.3303 59.9624C67.3859 60.0749 67.4415 60.1874 67.5527 60.2436C67.6639 60.2999 67.7751 60.2999 67.8863 60.3561C67.9975 60.3561 68.1643 60.4124 68.3311 60.4124C68.4979 60.4124 68.6647 60.4124 68.7759 60.3561C68.9427 60.3561 69.0539 60.2999 69.1651 60.2436C69.2763 60.1874 69.3319 60.1311 69.3875 59.9624C69.4431 59.8499 69.4431 59.6811 69.4431 59.5124V59.3436H68.3867V58.1624ZM73.5575 56.8124V57.9374H76.1707V59.0624H73.5575V60.2436H76.3931V61.5936H71.9451V55.4061H76.3375V56.7561H73.5575V56.8124ZM83.3431 55.4624V61.6499H80.5631L78.8395 56.9249H78.7839L78.8395 61.6499H77.2271V55.4624H80.0071L81.7307 60.1311H81.7863L81.7307 55.4624H83.3431ZM85.9563 56.8124V57.9374H88.5695V59.0624H85.9563V60.2436H88.7919V61.5936H84.3439V55.4061H88.7363V56.7561H85.9563V56.8124ZM89.6259 61.6499V55.4624H92.6839C93.0731 55.4624 93.4067 55.5186 93.6847 55.5749C93.9627 55.6311 94.1851 55.7436 94.3519 55.8561C94.5187 55.9686 94.6299 56.1936 94.7411 56.4749C94.8523 56.7561 94.8523 57.0936 94.8523 57.4874C94.8523 57.7124 94.8523 57.9374 94.7967 58.1061C94.7967 58.2749 94.7411 58.4436 94.6855 58.6124C94.6299 58.7811 94.5187 58.8936 94.3519 59.0061C94.1851 59.1186 93.9627 59.1749 93.6847 59.2311V59.2874C93.8515 59.2874 94.0183 59.3436 94.1851 59.3999C94.2963 59.4561 94.4631 59.5686 94.5187 59.6249C94.6299 59.7374 94.6855 59.8499 94.7411 60.0186C94.7967 60.1874 94.7967 60.3561 94.7967 60.5249V61.6499H93.1287V60.8061C93.1287 60.6936 93.1287 60.5811 93.0731 60.4686C93.0731 60.3561 93.0175 60.2999 92.9619 60.1874C92.9063 60.1311 92.8507 60.0749 92.7395 60.0186C92.6283 59.9624 92.5171 59.9624 92.4059 59.9624H91.1827V61.5936H89.6259V61.6499ZM91.2383 58.6124H92.5171C92.5171 58.6124 92.5171 58.6124 92.5727 58.6124C92.5727 58.6124 92.5727 58.6124 92.6283 58.6124C92.7395 58.6124 92.8507 58.6124 92.9619 58.5561C93.0175 58.4999 93.0731 58.4436 93.1287 58.3874C93.1843 58.3311 93.1843 58.2186 93.1843 58.1061C93.1843 57.9936 93.1843 57.8811 93.1843 57.7686C93.1843 57.5999 93.1843 57.4874 93.1843 57.3749C93.1843 57.2624 93.1287 57.1499 93.1287 57.0936C93.0731 57.0374 93.0175 56.9811 92.9063 56.9249C92.7951 56.8686 92.6839 56.8686 92.5171 56.8686H91.2939V58.6124H91.2383ZM99.3003 60.5811H97.1319L96.8539 61.6499H95.1303L96.9651 55.4624H99.4115L101.246 61.6499H99.5783L99.3003 60.5811ZM99.0223 59.3999L98.2439 56.6999L97.5211 59.3999H99.0223ZM104.527 56.9249V61.6499H102.859V56.9249H101.302V55.5186H106.139V56.9249H104.527Z" fill="black"/>
<path d="M106.527 58.6124C106.527 58.5561 106.527 58.4999 106.527 58.4436C106.527 58.3874 106.527 58.3311 106.527 58.2749C106.527 58.2749 106.527 58.2186 106.527 58.1624C106.527 58.1061 106.527 58.1061 106.527 58.0499C106.527 57.9936 106.527 57.9936 106.527 57.9374C106.527 57.8811 106.527 57.8811 106.527 57.8249C106.527 57.7686 106.527 57.7124 106.527 57.6561C106.527 57.5999 106.527 57.5436 106.527 57.4874C106.527 57.4311 106.527 57.4311 106.527 57.3749C106.527 57.3186 106.527 57.3186 106.527 57.2624C106.527 57.2061 106.527 57.2061 106.527 57.1499C106.527 57.0936 106.527 57.0936 106.527 57.0374C106.583 56.6999 106.694 56.4186 106.861 56.1936C107.028 55.9686 107.25 55.7999 107.473 55.6874C107.695 55.5749 107.973 55.5186 108.251 55.4624C108.529 55.4061 108.807 55.4061 109.085 55.3499C109.085 55.3499 109.085 55.3499 109.141 55.3499H109.196C109.196 55.3499 109.196 55.3499 109.252 55.3499H109.307C109.808 55.3499 110.253 55.4061 110.642 55.4624C111.031 55.5749 111.309 55.6874 111.531 55.8561C111.754 56.0249 111.921 56.3061 112.032 56.6999C112.143 57.0936 112.199 57.5436 112.199 58.1061C112.199 58.6686 112.143 59.1749 112.087 59.6249C112.032 60.0749 111.921 60.4124 111.809 60.6936C111.698 60.9749 111.42 61.1999 111.031 61.3686C110.642 61.5374 110.086 61.5936 109.419 61.5936H109.363H109.307C109.252 61.5936 109.252 61.5936 109.252 61.5936H109.196H109.141C109.085 61.5936 109.085 61.5936 109.085 61.5936C109.029 61.5936 109.029 61.5936 108.974 61.5936H108.918C108.696 61.5936 108.473 61.5374 108.251 61.5374C108.029 61.4811 107.806 61.4249 107.639 61.3124C107.417 61.1999 107.25 61.0874 107.139 60.9186C107.028 60.7499 106.917 60.5249 106.805 60.2999C106.75 60.1874 106.75 60.0749 106.75 59.9624C106.75 59.8499 106.694 59.7374 106.694 59.6249C106.694 59.5124 106.694 59.3999 106.694 59.2874C106.694 59.1749 106.694 59.0624 106.694 58.9499V58.6124H106.527ZM108.195 58.5561V58.9499C108.195 59.1749 108.195 59.3999 108.251 59.5686C108.251 59.7374 108.307 59.8499 108.362 59.9624C108.418 60.0749 108.529 60.1874 108.64 60.2436C108.807 60.2999 108.974 60.2999 109.252 60.2999C109.53 60.2999 109.752 60.2999 109.919 60.2436C110.086 60.1874 110.197 60.1311 110.308 60.0186C110.364 59.9061 110.419 59.7936 110.475 59.6249C110.531 59.4561 110.531 59.2311 110.531 58.9499C110.531 58.8936 110.531 58.8936 110.531 58.8374C110.531 58.7811 110.531 58.7811 110.531 58.7249C110.531 58.6686 110.531 58.6686 110.531 58.6124C110.531 58.5561 110.531 58.5561 110.531 58.4999C110.531 58.4436 110.531 58.4436 110.531 58.3874C110.531 58.3311 110.531 58.3311 110.531 58.2749C110.531 58.2186 110.531 58.2186 110.531 58.1624C110.531 58.1061 110.531 58.1061 110.531 58.0499C110.531 57.8249 110.531 57.6561 110.475 57.5436C110.419 57.3749 110.419 57.2624 110.364 57.1499C110.308 57.0374 110.197 56.9811 110.086 56.9249C109.919 56.8686 109.752 56.8686 109.53 56.8686C109.196 56.8686 108.974 56.8686 108.751 56.9249C108.585 56.9811 108.418 57.0374 108.362 57.0936C108.307 57.2061 108.251 57.3186 108.251 57.5999C108.195 57.8249 108.195 58.1624 108.195 58.5561C108.195 58.6124 108.195 58.6124 108.195 58.5561ZM112.921 61.6499V55.4624H115.979C116.369 55.4624 116.702 55.5186 116.98 55.5749C117.258 55.6311 117.481 55.7436 117.647 55.8561C117.814 55.9686 117.925 56.1936 118.037 56.4749C118.148 56.7561 118.148 57.0936 118.148 57.4874C118.148 57.7124 118.148 57.9374 118.092 58.1061C118.037 58.2749 118.037 58.4436 117.981 58.6124C117.925 58.7811 117.814 58.8936 117.647 59.0061C117.481 59.1186 117.258 59.1749 116.98 59.2311V59.2874C117.147 59.2874 117.314 59.3436 117.481 59.3999C117.592 59.4561 117.759 59.5686 117.814 59.6249C117.925 59.7374 117.981 59.8499 118.037 60.0186C118.092 60.1874 118.092 60.3561 118.092 60.5249V61.6499H116.424V60.8061C116.424 60.6936 116.424 60.5811 116.369 60.4686C116.369 60.3561 116.313 60.2999 116.257 60.1874C116.202 60.1311 116.146 60.0749 116.035 60.0186C115.924 59.9624 115.813 59.9624 115.701 59.9624H114.478V61.5936H112.921V61.6499ZM114.589 58.6124H115.868C115.868 58.6124 115.868 58.6124 115.924 58.6124C116.035 58.6124 116.146 58.6124 116.257 58.5561C116.313 58.4999 116.369 58.4436 116.424 58.3874C116.48 58.3311 116.48 58.2186 116.48 58.1061C116.48 57.9936 116.535 57.8811 116.535 57.7686C116.535 57.5999 116.535 57.4874 116.48 57.3749C116.48 57.2624 116.424 57.1499 116.424 57.0936C116.369 57.0374 116.313 56.9811 116.202 56.9249C116.091 56.8686 115.979 56.8686 115.813 56.8686H114.589V58.6124ZM120.261 60.2436V61.4811C120.261 61.7061 120.261 61.9311 120.205 62.0999C120.149 62.2686 120.094 62.3811 119.983 62.4936C119.871 62.6061 119.76 62.6624 119.593 62.7186C119.427 62.7749 119.204 62.7749 118.926 62.7749C118.926 62.7749 118.926 62.7749 118.871 62.7749V62.1561C118.982 62.1561 119.093 62.1561 119.149 62.1561C119.204 62.1561 119.26 62.1561 119.315 62.0999C119.371 62.0999 119.371 62.0436 119.371 62.0436C119.371 61.9874 119.427 61.9874 119.427 61.9311V61.8749V61.8186V61.7624V61.7061H118.926V60.2999H120.261V60.2436ZM125.431 55.4624V61.6499H123.819V55.4624H125.431ZM132.548 55.4624V61.6499H129.768L128.045 56.9249H127.989L128.045 61.6499H126.432V55.4624H129.212L130.936 60.1311H130.991L130.936 55.4624H132.548ZM137.052 59.2874H138.664V59.4561C138.664 59.6249 138.664 59.8499 138.664 60.0186C138.664 60.1874 138.609 60.3561 138.609 60.5249C138.553 60.6936 138.497 60.8624 138.386 60.9749C138.275 61.0874 138.108 61.2561 137.941 61.3686C137.83 61.4249 137.719 61.4811 137.663 61.5374C137.552 61.5936 137.441 61.5936 137.33 61.5936C137.274 61.5936 137.219 61.5936 137.163 61.5936C137.107 61.5936 137.052 61.5936 136.996 61.5936C136.941 61.5936 136.885 61.5936 136.829 61.5936C136.774 61.5936 136.718 61.5936 136.663 61.5936H136.607H136.551C136.551 61.5936 136.551 61.5936 136.496 61.5936H136.44C136.385 61.5936 136.329 61.5936 136.273 61.5936C136.218 61.5936 136.162 61.5936 136.107 61.5936H136.051C135.995 61.5936 135.995 61.5936 135.94 61.5936H135.884C135.829 61.5936 135.829 61.5936 135.773 61.5936C135.717 61.5936 135.717 61.5936 135.662 61.5936C135.606 61.5936 135.606 61.5936 135.606 61.5936C135.551 61.5936 135.551 61.5936 135.495 61.5936C135.439 61.5936 135.439 61.5936 135.384 61.5936C135.328 61.5936 135.273 61.5936 135.217 61.5936C135.161 61.5936 135.106 61.5936 135.05 61.5936C134.661 61.5374 134.327 61.4811 134.049 61.3124C133.827 61.1436 133.66 60.9749 133.549 60.6936C133.438 60.4124 133.382 60.1311 133.327 59.8499C133.271 59.5686 133.271 59.2311 133.271 58.8936V58.0499C133.271 57.5436 133.327 57.0936 133.438 56.7561C133.549 56.4186 133.716 56.1374 133.883 55.9124C134.105 55.7436 134.383 55.5749 134.717 55.5186C135.05 55.4061 135.495 55.3499 135.995 55.3499H136.496H136.551H136.607H136.663H136.718C136.885 55.3499 137.052 55.3499 137.163 55.4061C137.33 55.4061 137.497 55.4624 137.608 55.5186C137.775 55.5749 137.886 55.6311 137.997 55.7436C138.108 55.8561 138.219 55.9686 138.275 56.1374C138.331 56.1936 138.331 56.3061 138.386 56.3624C138.386 56.4186 138.442 56.5311 138.442 56.5874C138.442 56.6436 138.442 56.6999 138.442 56.6999C138.442 56.7561 138.442 56.7561 138.442 56.8124C138.442 56.8686 138.442 56.9249 138.442 56.9249C138.442 56.9811 138.442 56.9811 138.442 57.0374V57.0936V57.1499C138.442 57.1499 138.442 57.1499 138.442 57.2061C138.442 57.2061 138.442 57.2061 138.442 57.2624C138.442 57.2624 138.442 57.2624 138.442 57.3186C138.442 57.3186 138.442 57.3186 138.442 57.3749V57.4874H136.774C136.774 57.3186 136.774 57.2061 136.718 57.0936C136.663 56.9811 136.663 56.9249 136.607 56.8686C136.551 56.8124 136.44 56.7561 136.385 56.6999C136.273 56.6436 136.162 56.6436 135.995 56.6436H135.717C135.717 56.6436 135.717 56.6436 135.662 56.6436C135.662 56.6436 135.662 56.6436 135.606 56.6436C135.606 56.6436 135.606 56.6436 135.551 56.6436C135.551 56.6436 135.551 56.6436 135.495 56.6436C135.495 56.6436 135.495 56.6436 135.439 56.6436C135.384 56.6436 135.328 56.6436 135.328 56.6436C135.273 56.6436 135.217 56.6436 135.161 56.6999C135.106 56.6999 135.106 56.7561 135.05 56.7561C134.995 56.7561 134.995 56.8124 134.939 56.8686C134.883 56.9249 134.883 56.9249 134.883 56.9811C134.883 57.0374 134.828 57.0374 134.828 57.0936C134.828 57.1499 134.828 57.2061 134.828 57.2061C134.828 57.2624 134.828 57.3186 134.828 57.3186V57.3749V57.4311V57.4874V57.5436V57.5999V57.6561V57.7124V57.7686C134.828 57.8249 134.828 57.8811 134.828 57.8811C134.828 57.9374 134.828 57.9936 134.828 58.0499C134.828 58.1061 134.828 58.1624 134.828 58.1624C134.828 58.2186 134.828 58.2749 134.828 58.2749C134.828 58.2749 134.828 58.2749 134.828 58.3311V58.3874C134.828 58.3874 134.828 58.3874 134.828 58.4436C134.828 58.4436 134.828 58.4436 134.828 58.4999V58.5561C134.828 58.5561 134.828 58.5561 134.828 58.6124C134.828 58.6124 134.828 58.6124 134.828 58.6686V58.7249C134.828 58.9499 134.828 59.1186 134.883 59.2874C134.939 59.4561 134.939 59.5686 135.05 59.6249C135.106 59.6811 135.217 59.7936 135.384 59.7936C135.495 59.8499 135.717 59.8499 135.94 59.8499C136.107 59.8499 136.218 59.8499 136.385 59.7936C136.496 59.7936 136.607 59.7374 136.718 59.6811C136.829 59.6249 136.885 59.5686 136.941 59.4561C136.996 59.3436 136.996 59.1749 136.996 59.0061C137.052 59.3999 137.052 59.3999 137.052 59.2874Z" fill="black"/>
<path fill-rule="evenodd" clip-rule="evenodd" d="M50.5403 14.0624C72.0019 -2.08136 96.1323 -1.29386 104.472 15.8061C106.696 20.3061 107.53 25.4811 107.252 30.9936H120.263C120.819 24.8624 119.651 19.1249 116.649 14.1186C105.64 -3.93761 73.9479 -4.78136 45.7587 12.2624C39.5871 15.9749 34.0827 20.3061 29.4123 24.9186H38.9755C42.3671 20.9811 46.2035 17.2686 50.5403 14.0624ZM93.4635 63.6749C89.8495 68.1749 85.5683 72.3374 80.7867 75.9374C59.3251 92.0811 35.1947 91.2936 26.8547 74.1936C25.2979 70.9874 24.4083 67.4436 24.1303 63.6749H10.9531C11.2311 68.0624 12.3987 72.1686 14.6227 75.8811C25.5759 93.9374 57.3235 94.7812 85.4571 77.6811C92.2403 73.5749 98.1895 68.7936 103.194 63.6749H93.4635ZM29.6347 27.1686H36.2511V31.7249H29.6347V27.1686Z" fill="url(#paint0_linear_44_33239)"/>
</g>
<defs>
<linearGradient id="paint0_linear_44_33239" x1="10.9481" y1="44.9999" x2="120.368" y2="44.9999" gradientUnits="userSpaceOnUse">
<stop stop-color="#B71237"/>
<stop offset="0.1691" stop-color="#CC153A"/>
<stop offset="0.3564" stop-color="#DC173C"/>
<stop offset="0.5" stop-color="#E2183D"/>
<stop offset="0.6436" stop-color="#DC173C"/>
<stop offset="0.8309" stop-color="#CC153A"/>
<stop offset="1" stop-color="#B71237"/>
</linearGradient>
<clipPath id="clip0_44_33239">
<rect width="139" height="90" fill="white"/>
</clipPath>
</defs>
</svg>
