<svg width="46" height="46" viewBox="0 0 46 46" fill="none" xmlns="http://www.w3.org/2000/svg">
<path d="M8.36841 3.65283C6.88306 4.04834 5.7229 5.23486 5.32739 6.73779C5.12524 7.49365 5.12524 34.687 5.32739 35.4429C5.7229 36.9634 6.89185 38.1411 8.40356 38.5366C8.85181 38.6509 9.88013 38.6685 15.4788 38.6685H22.0354L22.1233 39.2749C22.387 40.9536 23.635 42.3247 25.2786 42.7554C26.052 42.9487 34.9641 42.9487 35.7375 42.7554C37.2493 42.3599 38.4182 41.1821 38.8137 39.6616C38.9192 39.2397 38.9456 38.2905 38.9456 34.0015V28.8423L39.9036 28.8071C40.9407 28.7808 41.1428 28.7017 41.5295 28.1743C41.7141 27.937 41.7141 27.8843 41.7141 18.981C41.7141 10.0776 41.7141 10.0249 41.5295 9.7876C41.1428 9.26025 40.9407 9.18115 39.9124 9.15479L38.9543 9.11963L38.928 6.76416C38.9016 4.54053 38.8928 4.39111 38.717 4.1626C38.3743 3.69678 38.093 3.55615 37.5393 3.55615C36.9856 3.55615 36.7043 3.69678 36.3616 4.1626C36.1858 4.39111 36.177 4.54053 36.1506 6.76416L36.1243 9.11963L35.1663 9.15479C34.1379 9.18115 33.9358 9.26025 33.5491 9.7876C33.3645 10.0249 33.3645 10.0776 33.3645 18.981C33.3645 27.8843 33.3645 27.937 33.5491 28.1743C33.9358 28.7017 34.1379 28.7808 35.175 28.8071L36.1331 28.8423L36.1155 34.0103C36.0891 39.0815 36.0891 39.187 35.9045 39.4243C35.8079 39.5562 35.6145 39.7495 35.4827 39.8462C35.2454 40.0308 35.1487 40.0308 30.5081 40.0308C25.8674 40.0308 25.7708 40.0308 25.5334 39.8462C25.1907 39.6001 24.9797 39.2925 24.9182 38.9497L24.8655 38.6685H25.8235C26.9221 38.6685 27.5725 38.5278 28.3196 38.1323C28.9348 37.7983 29.6995 37.0249 30.0159 36.4009C30.5344 35.3813 30.5081 36.1812 30.5081 21.0903C30.5081 8.93506 30.4905 7.17725 30.3762 6.72021C29.9807 5.2085 28.803 4.03955 27.2825 3.64404C26.5442 3.45068 9.08911 3.45947 8.36841 3.65283ZM27.0452 6.55322C27.177 6.6499 27.3704 6.84326 27.467 6.9751L27.6516 7.2124V21.0903V34.9683L27.467 35.2056C27.3704 35.3374 27.177 35.5308 27.0452 35.6274C26.8079 35.812 26.7551 35.812 17.8518 35.812C8.94849 35.812 8.89575 35.812 8.65845 35.6274C8.52661 35.5308 8.33325 35.3374 8.23657 35.2056C8.052 34.9683 8.052 34.9419 8.02563 21.3276C8.01685 13.8218 8.02563 7.56396 8.052 7.40576C8.11353 7.0542 8.48267 6.60596 8.84302 6.44775C9.05396 6.35107 10.7327 6.3335 17.9573 6.35107C26.7375 6.36865 26.8079 6.36865 27.0452 6.55322ZM38.9456 13.356V14.7622H37.5393H36.1331V13.356V11.9497H37.5393H38.9456V13.356ZM38.9456 21.7935V26.0122H37.5393H36.1331V21.7935V17.5747H37.5393H38.9456V21.7935Z" fill="white"/>
<path d="M10.2493 7.85449C9.88891 8.0127 9.51977 8.46094 9.45825 8.8125C9.43188 8.9707 9.4143 10.4824 9.43188 12.1875C9.45825 15.1494 9.46704 15.29 9.64282 15.5186C9.7395 15.6504 9.93286 15.8438 10.0647 15.9404C10.302 16.125 10.3635 16.125 17.8518 16.125C25.3401 16.125 25.4016 16.125 25.6389 15.9404C25.7707 15.8438 25.9641 15.6504 26.0608 15.5186C26.2366 15.2812 26.2454 15.1758 26.2454 11.9502C26.2454 8.72461 26.2366 8.61914 26.0608 8.38184C25.9641 8.25 25.7707 8.05664 25.6389 7.95996C25.4016 7.77539 25.3225 7.77539 17.9573 7.75781C11.9016 7.74023 10.4602 7.75781 10.2493 7.85449ZM23.4768 11.9502V13.3564H17.8518H12.2268V11.9502V10.5439H17.8518H23.4768V11.9502Z" fill="white"/>
<path d="M15.874 17.6982C15.3203 17.9443 15.0391 18.4453 15.0391 19.1572C15.0391 19.5 15.0039 19.5967 14.8633 19.6406C14.5117 19.7549 13.3691 20.5635 12.8857 21.0469C11.5322 22.4004 10.8643 24.0352 10.8643 26.0127C10.8643 27.9902 11.5322 29.625 12.8857 30.9785C14.2393 32.332 15.874 33 17.8516 33C19.8291 33 21.4639 32.332 22.8174 30.9785C24.1709 29.6162 24.8389 27.9814 24.8301 26.0127C24.8301 24.0264 24.1709 22.4004 22.8174 21.0469C22.334 20.5723 21.1914 19.7549 20.8486 19.6406C20.7168 19.6055 20.6729 19.4736 20.6465 19.0254C20.6113 18.4189 20.4619 18.1377 20.0137 17.8037C19.7939 17.6367 19.6357 17.6191 17.957 17.6016C16.5684 17.584 16.0762 17.6016 15.874 17.6982ZM15.2676 26.7686C15.7158 27.3662 15.7334 27.375 17.8516 27.375C19.6533 27.375 19.7852 27.3662 20.0137 27.1904C20.6025 26.7598 20.6201 26.6982 20.6641 24.7207L20.708 22.9102L21.0332 23.2705C22.457 24.8525 22.3867 27.3311 20.8662 28.9219C19.2578 30.6094 16.6562 30.6621 14.9424 29.0273C13.334 27.4893 13.2021 24.8877 14.6699 23.2705L14.9951 22.9102L15.0391 24.7207C15.083 26.373 15.1006 26.5488 15.2676 26.7686Z" fill="white"/>
</svg>
