<svg width="242" height="158" viewBox="0 0 242 158" fill="none" xmlns="http://www.w3.org/2000/svg">
<g clip-path="url(#clip0_62_68)">
<path d="M0.580078 47.8086H17.3265L23.8121 73.3211L30.2977 47.8086H47.0441V89.8061H36.6865V57.8173L28.5553 89.8061H19.0689L11.0345 57.8173V89.8061H0.580078V47.8086Z" fill="white"/>
<path d="M51.5938 59.3867H63.1129V89.8055H51.5938V59.3867Z" fill="white"/>
<path d="M98.6387 47.8086V89.708H87.8939V85.1942C86.3451 87.0586 84.9899 88.4324 83.7315 89.0211C82.0859 89.9042 80.2467 90.2967 78.2139 90.2967C74.1483 90.2967 71.0507 88.7267 68.8243 85.5867C66.6947 82.4467 65.6299 78.6198 65.6299 74.1061C65.6299 69.1017 66.7915 65.1767 69.2115 62.5273C71.6315 59.878 74.6323 58.5042 78.3107 58.5042C80.1499 58.5042 81.6987 58.7986 83.1507 59.3873C84.6027 59.9761 85.8611 60.9573 87.0227 62.1348V47.8086H98.6387ZM87.1195 74.4986C87.1195 72.1436 86.6355 70.3773 85.6675 69.1998C84.6995 68.0223 83.4411 67.4336 81.8923 67.4336C80.5371 67.4336 79.4723 68.0223 78.5043 69.1017C77.6331 70.1811 77.1491 72.1436 77.1491 74.793C77.1491 77.2461 77.6331 79.1105 78.5043 80.288C79.4723 81.4655 80.6339 82.0542 81.9891 82.0542C83.4411 82.0542 84.6995 81.4655 85.6675 80.288C86.6355 79.0124 87.1195 77.148 87.1195 74.4986Z" fill="white"/>
<path d="M99.5098 59.3867H110.642L115.482 78.5211L121.58 59.3867H131.938L138.23 78.5211L143.07 59.3867H154.105L143.07 89.8055H132.906L126.807 71.4561L120.999 89.8055H110.642L99.5098 59.3867Z" fill="white"/>
<path d="M186.823 77.4426H163.785C163.979 79.307 164.463 80.6807 165.237 81.662C166.302 82.9376 167.754 83.6245 169.593 83.6245C170.755 83.6245 171.819 83.3301 172.787 82.7413C173.368 82.3488 174.046 81.7601 174.82 80.877L186.146 81.9563C184.403 84.9982 182.371 87.157 179.854 88.5307C177.434 89.8063 173.949 90.4932 169.303 90.4932C165.334 90.4932 162.236 89.9045 159.913 88.8251C157.59 87.6476 155.751 85.8813 154.299 83.4282C152.847 80.9751 152.072 78.0313 152.072 74.6951C152.072 69.9851 153.524 66.0601 156.525 63.2145C159.526 60.2707 163.688 58.7988 169.012 58.7988C173.271 58.7988 176.659 59.4857 179.176 60.7613C181.693 62.037 183.532 63.9995 184.887 66.4526C186.146 68.9057 186.823 72.242 186.823 76.167V77.4426ZM175.111 71.8495C174.917 69.5926 174.239 68.0226 173.271 67.0413C172.303 66.0601 171.045 65.5695 169.399 65.5695C167.56 65.5695 166.108 66.3545 165.043 67.7282C164.366 68.6113 163.882 69.9851 163.688 71.8495H175.111Z" fill="white"/>
<path d="M186.727 81.368L198.149 80.2887C198.633 81.6624 199.311 82.6437 200.085 83.2324C200.956 83.8212 202.021 84.1155 203.473 84.1155C205.022 84.1155 206.183 83.8212 207.055 83.1343C207.732 82.6437 208.023 82.0549 208.023 81.2699C208.023 80.3868 207.635 79.798 206.764 79.3074C206.183 79.013 204.538 78.6205 201.827 78.1299C197.859 77.443 195.051 76.7562 193.503 76.1674C191.954 75.5787 190.599 74.4993 189.631 73.1255C188.566 71.6537 188.082 70.0837 188.082 68.2193C188.082 66.2568 188.663 64.4905 189.824 63.0187C190.986 61.5468 192.535 60.4674 194.567 59.7805C196.6 59.0937 199.311 58.7012 202.699 58.7012C206.28 58.7012 208.894 58.9955 210.636 59.4862C212.379 60.0749 213.734 60.8599 214.895 62.0374C216.057 63.2149 216.928 64.7849 217.703 66.7474L206.764 67.8268C206.474 66.8455 205.99 66.1587 205.312 65.668C204.441 65.0793 203.279 64.7849 202.021 64.7849C200.763 64.7849 199.795 64.9812 199.214 65.4718C198.633 65.9624 198.343 66.5512 198.343 67.1399C198.343 67.9249 198.73 68.4155 199.504 68.808C200.279 69.2005 201.924 69.4949 204.441 69.8874C208.216 70.2799 211.12 70.9668 212.959 71.7518C214.799 72.5368 216.251 73.6162 217.219 75.088C218.187 76.5599 218.671 78.1299 218.671 79.8962C218.671 81.6624 218.187 83.3305 217.122 84.9987C216.057 86.6668 214.411 87.9424 212.185 88.9237C209.959 89.9049 206.861 90.3955 202.989 90.3955C197.471 90.3955 193.599 89.6105 191.276 88.0405C188.953 86.5687 187.404 84.3118 186.727 81.368Z" fill="white"/>
<path d="M234.643 47.8086V59.3873H240.935V67.9242H234.643V78.718C234.643 79.9936 234.739 80.8767 235.03 81.2692C235.417 81.9561 236.095 82.2505 236.966 82.2505C237.837 82.2505 238.999 81.9561 240.547 81.4655L241.419 89.5117C238.611 90.1005 235.901 90.493 233.481 90.493C230.577 90.493 228.544 90.1005 227.189 89.4136C225.834 88.6286 224.866 87.5492 224.188 86.0774C223.511 84.6055 223.22 82.0542 223.22 78.718V67.9242H218.961V59.3873H223.22V53.7942L234.643 47.8086Z" fill="white"/>
<path d="M3.77497 99.52V101.482H8.32457V103.445H3.77497V105.506H8.71177V107.861H0.967773V97.0669H8.61497V99.4219H3.77497V99.52ZM12.971 97.165V105.506H17.4238V107.959H10.067V97.165H12.971ZM21.2958 99.52V101.482H25.8454V103.445H21.2958V105.506H26.2326V107.861H18.4886V97.0669H26.1358V99.4219H21.2958V99.52ZM33.8798 103.837H36.687V104.132C36.687 104.426 36.687 104.819 36.687 105.113C36.687 105.407 36.5902 105.702 36.5902 105.996C36.4934 106.291 36.3966 106.585 36.203 106.781C36.0094 106.977 35.719 107.272 35.4286 107.468C35.235 107.566 35.0414 107.664 34.9446 107.762C34.751 107.861 34.5574 107.861 34.3638 107.861C34.267 107.861 34.1702 107.861 34.0734 107.861C33.9766 107.861 33.8798 107.861 33.783 107.861C33.6862 107.861 33.5894 107.861 33.4926 107.861C33.3958 107.861 33.299 107.861 33.2022 107.861H33.1054H33.0086C33.0086 107.861 33.0086 107.861 32.9118 107.861C32.9118 107.861 32.9118 107.861 32.815 107.861C32.7182 107.861 32.6214 107.861 32.5246 107.861C32.4278 107.861 32.331 107.861 32.2342 107.861C32.1374 107.861 32.1374 107.861 32.0406 107.861C31.9438 107.861 31.9438 107.861 31.847 107.861H31.7502C31.7502 107.861 31.6534 107.861 31.5566 107.861C31.4598 107.861 31.4598 107.861 31.363 107.861C31.2662 107.861 31.2662 107.861 31.2662 107.861C31.1694 107.861 31.1694 107.861 31.0726 107.861C31.0726 107.861 30.9758 107.861 30.879 107.861C30.7822 107.861 30.6854 107.861 30.5886 107.861C30.4918 107.861 30.395 107.861 30.2982 107.861C29.6206 107.762 29.0398 107.664 28.5558 107.37C28.1686 107.076 27.8782 106.781 27.6846 106.291C27.491 105.8 27.3942 105.309 27.2974 104.819C27.2006 104.328 27.2006 103.739 27.1038 103.151V101.679C27.1038 100.796 27.2006 100.011 27.3942 99.4219C27.5878 98.8331 27.8782 98.3425 28.1686 97.95C28.5558 97.6556 29.0398 97.3612 29.6206 97.2631C30.2014 97.0669 30.9758 96.9688 31.847 96.9688H32.7182H32.815H32.9118H33.0086H33.1054C33.3958 96.9688 33.6862 96.9687 33.9766 97.0669C34.267 97.0669 34.4606 97.165 34.751 97.2631C35.0414 97.3612 35.235 97.4594 35.4286 97.6556C35.6222 97.8519 35.8158 98.0481 35.9126 98.3425C36.0094 98.4406 36.0094 98.6369 36.1062 98.735C36.1062 98.8331 36.203 99.0294 36.203 99.1275C36.203 99.2256 36.203 99.3238 36.203 99.3238C36.203 99.4219 36.203 99.4219 36.203 99.52C36.203 99.6181 36.203 99.7162 36.203 99.7162C36.203 99.8144 36.203 99.8144 36.203 99.9125V100.011V100.109C36.203 100.109 36.203 100.109 36.203 100.207C36.203 100.207 36.203 100.207 36.203 100.305C36.203 100.305 36.203 100.305 36.203 100.403C36.203 100.403 36.203 100.403 36.203 100.501V100.697H33.299C33.299 100.403 33.299 100.207 33.2022 100.011C33.1054 99.8144 33.1054 99.7162 33.0086 99.6181C32.9118 99.52 32.7182 99.4219 32.6214 99.3238C32.4278 99.2256 32.2342 99.2256 31.9438 99.2256H31.4598C31.4598 99.2256 31.4598 99.2256 31.363 99.2256C31.363 99.2256 31.363 99.2256 31.2662 99.2256C31.2662 99.2256 31.2662 99.2256 31.1694 99.2256C31.1694 99.2256 31.1694 99.2256 31.0726 99.2256C31.0726 99.2256 31.0726 99.2256 30.9758 99.2256C30.9758 99.2256 30.9758 99.2256 30.879 99.2256C30.879 99.2256 30.879 99.2256 30.7822 99.2256C30.6854 99.2256 30.5886 99.2256 30.4918 99.2256C30.395 99.2256 30.2982 99.2256 30.2014 99.3238C30.1046 99.3238 30.1046 99.4219 30.0078 99.4219C29.911 99.4219 29.911 99.52 29.8142 99.6181C29.7174 99.7162 29.7174 99.7163 29.7174 99.8144C29.7174 99.9125 29.6206 99.9125 29.6206 100.011C29.6206 100.109 29.6206 100.207 29.6206 100.207C29.6206 100.305 29.6206 100.403 29.6206 100.403V100.501V100.599V100.697V100.796V100.894V100.992V101.09V101.188C29.6206 101.286 29.6206 101.384 29.6206 101.384C29.6206 101.482 29.6206 101.581 29.6206 101.679C29.6206 101.777 29.6206 101.875 29.6206 101.875C29.6206 101.973 29.6206 102.071 29.6206 102.071C29.6206 102.071 29.6206 102.071 29.6206 102.169V102.268C29.6206 102.268 29.6206 102.267 29.6206 102.366C29.6206 102.366 29.6206 102.366 29.6206 102.464V102.562C29.6206 102.562 29.6206 102.562 29.6206 102.66C29.6206 102.66 29.6206 102.66 29.6206 102.758V102.856C29.6206 103.249 29.6206 103.543 29.7174 103.837C29.8142 104.132 29.8142 104.328 30.0078 104.426C30.1046 104.524 30.2982 104.721 30.5886 104.721C30.879 104.819 31.1694 104.819 31.5566 104.819C31.847 104.819 32.0406 104.819 32.331 104.721C32.5246 104.721 32.7182 104.622 32.9118 104.524C33.1054 104.426 33.2022 104.328 33.299 104.132C33.3958 103.936 33.3958 103.641 33.3958 103.347C33.8798 104.034 33.8798 104.034 33.8798 103.837ZM42.5918 99.7162V107.959H39.7846V99.7162H37.0742V97.2631H45.4958V99.7162H42.5918ZM46.4638 107.959V97.165H51.7878C52.4654 97.165 53.0462 97.2631 53.5302 97.3613C54.0142 97.4594 54.4014 97.6556 54.6918 97.8519C54.9822 98.0481 55.1758 98.4406 55.3694 98.9312C55.563 99.4219 55.563 100.011 55.563 100.697C55.563 101.09 55.563 101.483 55.4662 101.777C55.4662 102.071 55.3694 102.366 55.2726 102.66C55.1758 102.954 54.9822 103.151 54.6918 103.347C54.4014 103.543 54.0142 103.641 53.5302 103.739V103.837C53.8206 103.837 54.111 103.936 54.4014 104.034C54.595 104.132 54.8854 104.328 54.9822 104.426C55.1758 104.622 55.2726 104.819 55.3694 105.113C55.4662 105.407 55.4662 105.702 55.4662 105.996V107.959H52.5622V106.487C52.5622 106.291 52.5622 106.094 52.4654 105.898C52.4654 105.702 52.3686 105.604 52.2718 105.407C52.175 105.309 52.0782 105.211 51.8846 105.113C51.691 105.015 51.4974 105.015 51.3038 105.015H49.1742V107.861H46.4638V107.959ZM49.3678 102.66H51.5942C51.5942 102.66 51.5942 102.66 51.691 102.66C51.691 102.66 51.691 102.66 51.7878 102.66C51.9814 102.66 52.175 102.66 52.3686 102.562C52.4654 102.464 52.5622 102.366 52.659 102.268C52.7558 102.169 52.7558 101.973 52.7558 101.777C52.7558 101.581 52.7558 101.384 52.7558 101.188C52.7558 100.894 52.7558 100.697 52.7558 100.501C52.7558 100.305 52.659 100.109 52.659 100.011C52.5622 99.9125 52.4654 99.8144 52.2718 99.7162C52.0782 99.6181 51.8846 99.6181 51.5942 99.6181H49.4646V102.66H49.3678ZM59.919 97.165V107.959H57.1118V97.165H59.919ZM67.8566 103.837H70.6638V104.132C70.6638 104.426 70.6638 104.819 70.6638 105.113C70.6638 105.407 70.567 105.702 70.567 105.996C70.567 106.291 70.3734 106.585 70.1798 106.781C69.9862 106.977 69.6958 107.272 69.4054 107.468C69.2118 107.566 69.0182 107.664 68.9214 107.762C68.7278 107.861 68.5342 107.861 68.3406 107.861C68.2438 107.861 68.147 107.861 68.0502 107.861C67.9534 107.861 67.8566 107.861 67.7598 107.861C67.663 107.861 67.5662 107.861 67.4694 107.861C67.3726 107.861 67.2758 107.861 67.179 107.861C67.179 107.861 67.179 107.861 67.0822 107.861C67.0822 107.861 67.0822 107.861 66.9854 107.861C66.9854 107.861 66.9854 107.861 66.8886 107.861H66.7918C66.695 107.861 66.5982 107.861 66.5014 107.861C66.4046 107.861 66.3078 107.861 66.211 107.861C66.1142 107.861 66.1142 107.861 66.0174 107.861C66.0174 107.861 65.9206 107.861 65.8238 107.861H65.727C65.6302 107.861 65.6302 107.861 65.5334 107.861C65.4366 107.861 65.4366 107.861 65.3398 107.861C65.243 107.861 65.243 107.861 65.1462 107.861C65.0494 107.861 65.0494 107.861 64.9526 107.861C64.9526 107.861 64.8558 107.861 64.759 107.861C64.6622 107.861 64.5654 107.861 64.4686 107.861C64.3718 107.861 64.275 107.861 64.1782 107.861C63.5006 107.762 62.9198 107.664 62.5326 107.37C62.1454 107.076 61.855 106.781 61.6614 106.291C61.4678 105.8 61.371 105.309 61.2742 104.819C61.1774 104.328 61.1774 103.739 61.0806 103.151V101.679C61.0806 100.796 61.1774 100.011 61.371 99.4219C61.5646 98.8331 61.7582 98.3425 62.1454 97.95C62.5326 97.6556 63.0166 97.3612 63.5974 97.2631C64.1782 97.0669 64.9526 96.9688 65.8238 96.9688H66.695H66.7918H66.8886H66.9854H67.0822C67.3726 96.9688 67.663 96.9687 67.8566 97.0669C68.147 97.0669 68.4374 97.165 68.631 97.2631C68.9214 97.3612 69.115 97.4594 69.3086 97.6556C69.5022 97.8519 69.6958 98.0481 69.7926 98.3425C69.8894 98.4406 69.8894 98.6369 69.9862 98.735C69.9862 98.8331 70.083 99.0294 70.083 99.1275C70.083 99.2256 70.083 99.3238 70.083 99.3238C70.083 99.4219 70.083 99.4219 70.083 99.52C70.083 99.6181 70.083 99.7162 70.083 99.7162C70.083 99.8144 70.083 99.8144 70.083 99.9125V100.011V100.109C70.083 100.109 70.083 100.109 70.083 100.207C70.083 100.207 70.083 100.207 70.083 100.305C70.083 100.305 70.083 100.305 70.083 100.403C70.083 100.403 70.083 100.403 70.083 100.501V100.697H67.179C67.179 100.403 67.179 100.207 67.0822 100.011C66.9854 99.8144 66.9854 99.7162 66.8886 99.6181C66.7918 99.52 66.5982 99.4219 66.4046 99.3238C66.211 99.2256 66.0174 99.2256 65.727 99.2256H65.243C65.243 99.2256 65.243 99.2256 65.1462 99.2256C65.1462 99.2256 65.1462 99.2256 65.0494 99.2256C65.0494 99.2256 65.0494 99.2256 64.9526 99.2256C64.9526 99.2256 64.9526 99.2256 64.8558 99.2256C64.8558 99.2256 64.8558 99.2256 64.759 99.2256C64.759 99.2256 64.759 99.2256 64.6622 99.2256C64.6622 99.2256 64.6622 99.2256 64.5654 99.2256C64.4686 99.2256 64.3718 99.2256 64.275 99.2256C64.1782 99.2256 64.0814 99.2256 63.9846 99.3238C63.8878 99.3238 63.8878 99.4219 63.791 99.4219C63.6942 99.4219 63.6942 99.52 63.5974 99.6181C63.5006 99.7162 63.5006 99.7163 63.5006 99.8144C63.5006 99.9125 63.4038 99.9125 63.4038 100.011C63.4038 100.109 63.4038 100.207 63.4038 100.207C63.4038 100.305 63.4038 100.403 63.4038 100.403V100.501V100.599V100.697V100.796V100.894V100.992V101.09V101.188C63.4038 101.286 63.4038 101.384 63.4038 101.384C63.4038 101.482 63.4038 101.581 63.4038 101.679C63.4038 101.777 63.4038 101.875 63.4038 101.875C63.4038 101.973 63.4038 102.071 63.4038 102.071C63.4038 102.071 63.4038 102.071 63.4038 102.169V102.268C63.4038 102.268 63.4038 102.267 63.4038 102.366C63.4038 102.366 63.4038 102.366 63.4038 102.464V102.562C63.4038 102.562 63.4038 102.562 63.4038 102.66C63.4038 102.66 63.4038 102.66 63.4038 102.758V102.856C63.4038 103.249 63.4038 103.543 63.5006 103.837C63.5974 104.132 63.5974 104.328 63.791 104.426C63.8878 104.524 64.0814 104.721 64.3718 104.721C64.6622 104.819 64.9526 104.819 65.3398 104.819C65.6302 104.819 65.8238 104.819 66.1142 104.721C66.3078 104.721 66.5014 104.622 66.695 104.524C66.8886 104.426 66.9854 104.328 67.0822 104.132C67.179 103.936 67.179 103.641 67.179 103.347C67.8566 104.034 67.8566 104.034 67.8566 103.837ZM82.4734 106.094H78.6982L78.2142 107.959H75.2134L78.4078 97.165H82.7638L85.9582 107.959H83.0542L82.4734 106.094ZM81.9894 104.034L80.6342 99.3238L79.3758 104.034H81.9894ZM97.2838 97.165V107.959H92.4438L89.443 99.7162H89.3462L89.443 107.959H86.6358V97.165H91.4758L94.4766 105.309H94.5734L94.4766 97.165H97.2838ZM99.0262 107.959V97.165H104.544C105.221 97.165 105.802 97.2631 106.286 97.4594C106.77 97.6556 107.254 97.8519 107.545 98.1462C107.932 98.4406 108.125 98.9312 108.319 99.4219C108.513 99.9125 108.609 100.501 108.609 101.286V102.562C108.609 103.249 108.609 103.936 108.513 104.622C108.416 105.309 108.319 105.898 108.125 106.389C107.932 106.977 107.641 107.37 107.061 107.566C106.48 107.861 105.802 107.959 104.931 107.959H99.0262ZM101.93 105.506H104.253C104.544 105.506 104.737 105.506 104.834 105.407C105.028 105.309 105.125 105.211 105.318 105.113C105.415 104.917 105.512 104.819 105.609 104.622C105.705 104.426 105.705 104.23 105.705 103.936V103.837V103.739V103.641V103.543C105.705 103.445 105.705 103.445 105.705 103.347C105.705 103.249 105.705 103.249 105.705 103.151C105.705 103.052 105.705 103.052 105.705 102.954C105.705 102.856 105.705 102.856 105.705 102.758C105.705 102.66 105.705 102.562 105.705 102.562C105.705 102.464 105.705 102.464 105.705 102.366C105.705 102.267 105.705 102.267 105.705 102.169C105.705 102.071 105.705 102.071 105.705 101.973V101.875V101.777C105.705 101.777 105.705 101.777 105.705 101.679V101.581C105.705 101.482 105.705 101.384 105.705 101.188C105.705 101.09 105.705 100.992 105.705 100.894C105.705 100.796 105.609 100.697 105.609 100.599C105.609 100.501 105.512 100.403 105.512 100.403C105.415 100.305 105.415 100.207 105.318 100.207C105.221 100.109 105.125 100.109 105.028 100.011C104.931 100.011 104.834 99.9125 104.737 99.9125C104.641 99.9125 104.544 99.9125 104.447 99.9125C104.447 99.9125 104.447 99.9125 104.35 99.9125C104.35 99.9125 104.35 99.9125 104.253 99.9125H101.93V105.506ZM119.064 101.875H123.904V102.169V103.936C123.904 104.426 123.904 104.917 123.807 105.407C123.71 105.898 123.613 106.291 123.42 106.683C123.226 107.076 123.033 107.37 122.645 107.566C122.258 107.762 121.774 107.959 121.193 107.959C121 107.959 120.806 107.959 120.709 107.959C120.516 107.959 120.419 107.959 120.225 107.959C120.129 107.959 120.032 107.959 119.935 107.959C119.838 107.959 119.741 107.959 119.645 107.959C119.548 107.959 119.451 107.959 119.354 107.959C119.257 107.959 119.161 107.959 119.064 107.959C118.193 107.959 117.515 107.861 116.934 107.762C116.353 107.664 115.773 107.468 115.385 107.174C114.998 106.879 114.611 106.487 114.417 105.898C114.224 105.309 114.127 104.524 114.127 103.543C114.127 103.543 114.127 103.445 114.127 103.347C114.127 103.249 114.127 103.249 114.127 103.151C114.127 103.052 114.127 103.052 114.127 102.954C114.127 102.856 114.127 102.856 114.127 102.758C114.127 102.66 114.127 102.66 114.127 102.562C114.127 102.464 114.127 102.464 114.127 102.366V102.268V102.169C114.127 102.169 114.127 102.169 114.127 102.071V101.973C114.127 101.973 114.127 101.973 114.127 101.875V101.777C114.127 101.777 114.127 101.777 114.127 101.679C114.127 101.581 114.127 101.482 114.127 101.482C114.127 101.384 114.127 101.286 114.127 101.286V101.188V101.09V100.992V100.894C114.127 100.697 114.127 100.403 114.224 100.207C114.224 100.011 114.321 99.7162 114.321 99.52C114.417 99.3237 114.417 99.0294 114.611 98.8331C114.708 98.6369 114.901 98.4406 114.998 98.2444C115.192 98.0481 115.385 97.8519 115.579 97.7537C115.773 97.6556 116.063 97.4594 116.257 97.4594C116.547 97.3612 116.741 97.2631 117.031 97.2631C117.321 97.2631 117.612 97.165 117.805 97.165C117.902 97.165 117.902 97.165 117.999 97.165C118.096 97.165 118.096 97.165 118.193 97.165H118.289C118.386 97.165 118.386 97.165 118.483 97.165C118.58 97.165 118.58 97.165 118.677 97.165C118.773 97.165 118.773 97.165 118.87 97.165H118.967C119.064 97.165 119.064 97.165 119.161 97.165C119.838 97.165 120.516 97.165 121 97.2631C121.581 97.3612 122.065 97.4594 122.452 97.5575C122.839 97.7537 123.226 98.0481 123.42 98.5387C123.613 99.0294 123.807 99.7162 123.807 100.501H120.903C120.903 100.305 120.806 100.109 120.709 100.011C120.613 99.9125 120.516 99.8144 120.419 99.7162C120.322 99.7162 120.225 99.6181 120.032 99.6181C119.838 99.6181 119.645 99.6181 119.451 99.6181H118.967H118.87H118.773C118.773 99.6181 118.773 99.6181 118.677 99.6181C118.677 99.6181 118.677 99.6181 118.58 99.6181C118.58 99.6181 118.58 99.6181 118.483 99.6181C118.386 99.6181 118.289 99.6181 118.193 99.6181C118.096 99.6181 117.999 99.6181 117.902 99.7162C117.805 99.7162 117.709 99.8144 117.612 99.8144C117.515 99.8144 117.418 99.9125 117.418 100.011C117.321 100.109 117.225 100.207 117.225 100.207C117.128 100.305 117.128 100.403 117.128 100.501C117.128 100.599 117.031 100.698 117.031 100.796C117.031 100.894 117.031 100.992 117.031 101.09V101.188V101.286V101.384V101.482V101.581V101.679C117.031 101.679 117.031 101.679 117.031 101.777C117.031 101.777 117.031 101.777 117.031 101.875C117.031 101.875 117.031 101.875 117.031 101.973V102.071V102.169C117.031 102.169 117.031 102.169 117.031 102.268C117.031 102.268 117.031 102.267 117.031 102.366C117.031 102.464 117.031 102.66 117.031 102.758C117.031 102.856 117.031 103.053 117.031 103.249C117.031 103.347 117.031 103.543 117.031 103.641C117.031 103.739 117.031 103.936 117.031 104.132C117.031 104.524 117.128 104.721 117.225 105.015C117.321 105.211 117.418 105.407 117.612 105.506C117.805 105.604 117.999 105.604 118.193 105.702C118.386 105.702 118.677 105.8 118.967 105.8C119.257 105.8 119.548 105.8 119.741 105.702C120.032 105.702 120.225 105.604 120.419 105.506C120.613 105.407 120.709 105.309 120.806 105.015C120.903 104.819 120.903 104.524 120.903 104.23V103.936H119.064V101.875ZM128.066 99.52V101.482H132.616V103.445H128.066V105.506H133.003V107.861H125.259V97.0669H132.906V99.4219H128.066V99.52ZM145.103 97.165V107.959H140.263L137.262 99.7162H137.165L137.262 107.959H134.455V97.165H139.295L142.296 105.309H142.393L142.296 97.165H145.103ZM149.653 99.52V101.482H154.202V103.445H149.653V105.506H154.589V107.861H146.845V97.0669H154.493V99.4219H149.653V99.52ZM156.041 107.959V97.165H161.365C162.043 97.165 162.624 97.2631 163.108 97.3613C163.592 97.4594 163.979 97.6556 164.269 97.8519C164.56 98.0481 164.753 98.4406 164.947 98.9312C165.141 99.4219 165.141 100.011 165.141 100.697C165.141 101.09 165.141 101.483 165.044 101.777C165.044 102.071 164.947 102.366 164.85 102.66C164.753 102.954 164.56 103.151 164.269 103.347C163.979 103.543 163.592 103.641 163.108 103.739V103.837C163.398 103.837 163.689 103.936 163.979 104.034C164.173 104.132 164.463 104.328 164.56 104.426C164.753 104.622 164.85 104.819 164.947 105.113C165.044 105.407 165.044 105.702 165.044 105.996V107.959H162.14V106.487C162.14 106.291 162.14 106.094 162.043 105.898C162.043 105.702 161.946 105.604 161.849 105.407C161.753 105.309 161.656 105.211 161.462 105.113C161.269 105.015 161.075 105.015 160.881 105.015H158.752V107.861H156.041V107.959ZM158.849 102.66H161.075C161.075 102.66 161.075 102.66 161.172 102.66C161.172 102.66 161.172 102.66 161.269 102.66C161.462 102.66 161.656 102.66 161.849 102.562C161.946 102.464 162.043 102.366 162.14 102.268C162.237 102.169 162.237 101.973 162.237 101.777C162.237 101.581 162.237 101.384 162.237 101.188C162.237 100.894 162.237 100.697 162.237 100.501C162.237 100.305 162.14 100.109 162.14 100.011C162.043 99.9125 161.946 99.8144 161.753 99.7162C161.559 99.6181 161.365 99.6181 161.075 99.6181H158.945V102.66H158.849ZM172.885 106.094H169.109L168.625 107.959H165.625L168.819 97.165H173.078L176.273 107.959H173.369L172.885 106.094ZM172.401 104.034L171.045 99.3238L169.787 104.034H172.401ZM181.984 99.7162V107.959H179.08V99.7162H176.369V97.2631H184.791V99.7162H181.984Z" fill="white"/>
<path d="M185.469 102.66C185.469 102.562 185.469 102.464 185.469 102.366C185.469 102.268 185.469 102.169 185.469 102.071C185.469 102.071 185.469 101.973 185.469 101.875C185.469 101.777 185.469 101.777 185.469 101.679C185.469 101.581 185.469 101.581 185.469 101.482C185.469 101.384 185.469 101.384 185.469 101.286C185.469 101.188 185.469 101.09 185.469 100.992C185.469 100.894 185.469 100.796 185.469 100.697C185.469 100.599 185.469 100.599 185.469 100.501C185.469 100.403 185.469 100.403 185.469 100.305C185.469 100.207 185.469 100.207 185.469 100.109C185.469 100.011 185.469 100.011 185.469 99.9125C185.566 99.3238 185.759 98.8331 186.05 98.4406C186.34 98.0481 186.727 97.7537 187.114 97.5575C187.502 97.3612 187.986 97.2631 188.47 97.165C188.954 97.0669 189.438 97.0669 189.922 96.9688C189.922 96.9688 189.922 96.9688 190.018 96.9688H190.115C190.115 96.9688 190.115 96.9688 190.212 96.9688H190.309C191.18 96.9688 191.954 97.0669 192.632 97.165C193.31 97.3612 193.794 97.5575 194.181 97.8519C194.568 98.1463 194.858 98.6369 195.052 99.3238C195.246 100.011 195.342 100.796 195.342 101.777C195.342 102.758 195.246 103.641 195.149 104.426C195.052 105.211 194.858 105.8 194.665 106.291C194.471 106.781 193.987 107.174 193.31 107.468C192.632 107.762 191.664 107.861 190.502 107.861H190.406H190.309C190.212 107.861 190.212 107.861 190.212 107.861H190.115H190.018C189.922 107.861 189.922 107.861 189.922 107.861C189.825 107.861 189.825 107.861 189.728 107.861H189.631C189.244 107.861 188.857 107.763 188.47 107.763C188.082 107.664 187.695 107.566 187.405 107.37C187.018 107.174 186.727 106.978 186.534 106.683C186.34 106.389 186.146 105.996 185.953 105.604C185.856 105.407 185.856 105.211 185.856 105.015C185.856 104.819 185.759 104.622 185.759 104.426C185.759 104.23 185.759 104.034 185.759 103.838C185.759 103.641 185.759 103.445 185.759 103.249V102.66H185.469ZM188.373 102.562V103.249C188.373 103.641 188.373 104.034 188.47 104.328C188.47 104.623 188.566 104.819 188.663 105.015C188.76 105.211 188.954 105.407 189.147 105.506C189.438 105.604 189.728 105.604 190.212 105.604C190.696 105.604 191.083 105.604 191.374 105.506C191.664 105.407 191.858 105.309 192.051 105.113C192.148 104.917 192.245 104.721 192.342 104.426C192.438 104.132 192.438 103.739 192.438 103.249C192.438 103.151 192.438 103.151 192.438 103.052C192.438 102.954 192.438 102.954 192.438 102.856C192.438 102.758 192.438 102.758 192.438 102.66C192.438 102.562 192.438 102.562 192.438 102.464C192.438 102.366 192.438 102.366 192.438 102.268C192.438 102.169 192.438 102.169 192.438 102.071C192.438 101.973 192.438 101.973 192.438 101.875C192.438 101.777 192.438 101.777 192.438 101.679C192.438 101.286 192.438 100.992 192.342 100.796C192.245 100.501 192.245 100.305 192.148 100.109C192.051 99.9125 191.858 99.8144 191.664 99.7162C191.374 99.6181 191.083 99.6181 190.696 99.6181C190.115 99.6181 189.728 99.6181 189.341 99.7162C189.05 99.8144 188.76 99.9125 188.663 100.011C188.566 100.207 188.47 100.403 188.47 100.894C188.373 101.286 188.373 101.875 188.373 102.562C188.373 102.66 188.373 102.66 188.373 102.562ZM196.601 107.959V97.165H201.925C202.602 97.165 203.183 97.2631 203.667 97.3613C204.151 97.4594 204.538 97.6556 204.829 97.8519C205.119 98.0481 205.313 98.4406 205.506 98.9313C205.7 99.4219 205.7 100.011 205.7 100.697C205.7 101.09 205.7 101.483 205.603 101.777C205.506 102.071 205.506 102.366 205.41 102.66C205.313 102.954 205.119 103.151 204.829 103.347C204.538 103.543 204.151 103.641 203.667 103.739V103.838C203.958 103.838 204.248 103.936 204.538 104.034C204.732 104.132 205.022 104.328 205.119 104.426C205.313 104.622 205.41 104.819 205.506 105.113C205.603 105.407 205.603 105.702 205.603 105.996V107.959H202.699V106.487C202.699 106.291 202.699 106.094 202.602 105.898C202.602 105.702 202.506 105.604 202.409 105.407C202.312 105.309 202.215 105.211 202.022 105.113C201.828 105.015 201.634 105.015 201.441 105.015H199.311V107.861H196.601V107.959ZM199.505 102.66H201.731C201.731 102.66 201.731 102.66 201.828 102.66C202.022 102.66 202.215 102.66 202.409 102.562C202.506 102.464 202.602 102.366 202.699 102.268C202.796 102.169 202.796 101.973 202.796 101.777C202.796 101.581 202.893 101.384 202.893 101.188C202.893 100.894 202.893 100.697 202.796 100.501C202.796 100.305 202.699 100.109 202.699 100.011C202.602 99.9125 202.506 99.8144 202.312 99.7162C202.118 99.6181 201.925 99.6181 201.634 99.6181H199.505V102.66ZM209.378 105.506V107.664C209.378 108.057 209.378 108.449 209.282 108.744C209.185 109.038 209.088 109.234 208.894 109.431C208.701 109.627 208.507 109.725 208.217 109.823C207.926 109.921 207.539 109.921 207.055 109.921C207.055 109.921 207.055 109.921 206.958 109.921V108.842C207.152 108.842 207.346 108.842 207.442 108.842C207.539 108.842 207.636 108.842 207.733 108.744C207.83 108.744 207.83 108.646 207.83 108.646C207.83 108.548 207.926 108.547 207.926 108.449V108.351V108.253V108.155V108.057H207.055V105.604H209.378V105.506ZM218.381 97.165V107.959H215.574V97.165H218.381ZM230.771 97.165V107.959H225.931L222.93 99.7162H222.834L222.93 107.959H220.123V97.165H224.963L227.964 105.309H228.061L227.964 97.165H230.771ZM238.612 103.838H241.419V104.132C241.419 104.426 241.419 104.819 241.419 105.113C241.419 105.407 241.322 105.702 241.322 105.996C241.226 106.291 241.129 106.585 240.935 106.781C240.742 106.978 240.451 107.272 240.161 107.468C239.967 107.566 239.774 107.664 239.677 107.763C239.483 107.861 239.29 107.861 239.096 107.861C238.999 107.861 238.902 107.861 238.806 107.861C238.709 107.861 238.612 107.861 238.515 107.861C238.418 107.861 238.322 107.861 238.225 107.861C238.128 107.861 238.031 107.861 237.934 107.861H237.838H237.741C237.741 107.861 237.741 107.861 237.644 107.861H237.547C237.45 107.861 237.354 107.861 237.257 107.861C237.16 107.861 237.063 107.861 236.966 107.861H236.87C236.773 107.861 236.773 107.861 236.676 107.861H236.579C236.482 107.861 236.482 107.861 236.386 107.861C236.289 107.861 236.289 107.861 236.192 107.861C236.095 107.861 236.095 107.861 236.095 107.861C235.998 107.861 235.998 107.861 235.902 107.861C235.805 107.861 235.805 107.861 235.708 107.861C235.611 107.861 235.514 107.861 235.418 107.861C235.321 107.861 235.224 107.861 235.127 107.861C234.45 107.762 233.869 107.664 233.385 107.37C232.998 107.076 232.707 106.781 232.514 106.291C232.32 105.8 232.223 105.309 232.126 104.819C232.03 104.328 232.03 103.739 232.03 103.151V101.679C232.03 100.796 232.126 100.011 232.32 99.4219C232.514 98.8331 232.804 98.3425 233.094 97.95C233.482 97.6556 233.966 97.3612 234.546 97.2631C235.127 97.0669 235.902 96.9688 236.773 96.9688H237.644H237.741H237.838H237.934H238.031C238.322 96.9688 238.612 96.9687 238.806 97.0669C239.096 97.0669 239.386 97.165 239.58 97.2631C239.87 97.3612 240.064 97.4594 240.258 97.6556C240.451 97.8519 240.645 98.0481 240.742 98.3425C240.838 98.4406 240.838 98.6369 240.935 98.735C240.935 98.8331 241.032 99.0294 241.032 99.1275C241.032 99.2256 241.032 99.3238 241.032 99.3238C241.032 99.4219 241.032 99.4219 241.032 99.52C241.032 99.6181 241.032 99.7162 241.032 99.7162C241.032 99.8144 241.032 99.8144 241.032 99.9125V100.011V100.109C241.032 100.109 241.032 100.109 241.032 100.207C241.032 100.207 241.032 100.207 241.032 100.305C241.032 100.305 241.032 100.305 241.032 100.403C241.032 100.403 241.032 100.403 241.032 100.501V100.697H238.128C238.128 100.403 238.128 100.207 238.031 100.011C237.934 99.8144 237.934 99.7162 237.838 99.6181C237.741 99.52 237.547 99.4219 237.45 99.3238C237.257 99.2256 237.063 99.2256 236.773 99.2256H236.289C236.289 99.2256 236.289 99.2256 236.192 99.2256C236.192 99.2256 236.192 99.2256 236.095 99.2256C236.095 99.2256 236.095 99.2256 235.998 99.2256C235.998 99.2256 235.998 99.2256 235.902 99.2256C235.902 99.2256 235.902 99.2256 235.805 99.2256C235.708 99.2256 235.611 99.2256 235.611 99.2256C235.514 99.2256 235.418 99.2256 235.321 99.3238C235.224 99.3238 235.224 99.4219 235.127 99.4219C235.03 99.4219 235.03 99.52 234.934 99.6181C234.837 99.7162 234.837 99.7163 234.837 99.8144C234.837 99.9125 234.74 99.9125 234.74 100.011C234.74 100.109 234.74 100.207 234.74 100.207C234.74 100.305 234.74 100.403 234.74 100.403V100.501V100.599V100.697V100.796V100.894V100.992V101.09V101.188C234.74 101.286 234.74 101.384 234.74 101.384C234.74 101.483 234.74 101.581 234.74 101.679C234.74 101.777 234.74 101.875 234.74 101.875C234.74 101.973 234.74 102.071 234.74 102.071C234.74 102.071 234.74 102.071 234.74 102.169V102.268C234.74 102.268 234.74 102.268 234.74 102.366C234.74 102.366 234.74 102.366 234.74 102.464V102.562C234.74 102.562 234.74 102.562 234.74 102.66C234.74 102.66 234.74 102.66 234.74 102.758V102.856C234.74 103.249 234.74 103.543 234.837 103.838C234.934 104.132 234.934 104.328 235.127 104.426C235.224 104.524 235.418 104.721 235.708 104.721C235.902 104.819 236.289 104.819 236.676 104.819C236.966 104.819 237.16 104.819 237.45 104.721C237.644 104.721 237.838 104.622 238.031 104.524C238.225 104.426 238.322 104.328 238.418 104.132C238.515 103.936 238.515 103.641 238.515 103.347C238.612 104.034 238.612 104.034 238.612 103.838Z" fill="white"/>
<path fill-rule="evenodd" clip-rule="evenodd" d="M87.9909 24.9458C125.356 -3.21604 167.367 -1.84229 181.887 27.9877C185.759 35.8377 187.211 44.8652 186.727 54.4815H209.378C210.346 43.7858 208.313 33.7771 203.086 25.044C183.92 -6.45417 128.744 -7.92604 79.6661 21.8058C68.9213 28.2821 59.3381 35.8377 51.2069 43.884H67.8565C73.7613 37.0152 80.4405 30.539 87.9909 24.9458ZM162.721 111.492C156.429 119.342 148.975 126.603 140.65 132.883C103.285 161.045 61.2741 159.671 46.7541 129.841C44.0437 124.248 42.4949 118.066 42.0109 111.492H19.0693C19.5533 119.146 21.5861 126.309 25.4581 132.785C44.5277 164.283 99.8005 165.755 148.781 135.925C160.591 128.762 170.949 120.421 179.661 111.492H162.721ZM51.5941 47.809H63.1133V55.7571H51.5941V47.809Z" fill="url(#paint0_linear_62_68)"/>
</g>
<defs>
<linearGradient id="paint0_linear_62_68" x1="19.0605" y1="78.9146" x2="209.562" y2="78.9146" gradientUnits="userSpaceOnUse">
<stop stop-color="#B71237"/>
<stop offset="0.1691" stop-color="#CC153A"/>
<stop offset="0.3564" stop-color="#DC173C"/>
<stop offset="0.5" stop-color="#E2183D"/>
<stop offset="0.6436" stop-color="#DC173C"/>
<stop offset="0.8309" stop-color="#CC153A"/>
<stop offset="1" stop-color="#B71237"/>
</linearGradient>
<clipPath id="clip0_62_68">
<rect width="242" height="157" fill="white" transform="translate(0 0.414062)"/>
</clipPath>
</defs>
</svg>
