<svg width="46" height="46" viewBox="0 0 46 46" fill="none" xmlns="http://www.w3.org/2000/svg">
<path d="M22.4035 0.490637C19.8711 0.947872 17.8399 2.7856 17.0398 5.32677C16.7496 6.26762 16.7496 7.89432 17.0486 8.84396C17.6113 10.6905 18.8511 12.1501 20.5218 12.9679C21.4363 13.4163 22.0869 13.5834 23.1245 13.6537C25.0062 13.768 26.7824 13.0822 28.1277 11.7193C28.9894 10.84 29.5522 9.88154 29.8687 8.72086C30.0798 7.96467 30.071 6.17969 29.8687 5.4147C29.2444 3.15491 27.5122 1.36114 25.2788 0.666496C24.5842 0.455465 23.0893 0.358743 22.4035 0.490637ZM24.3995 3.17249C25.9383 3.57697 27.0989 4.85195 27.3627 6.44348C27.6353 8.08777 26.8088 9.77602 25.3404 10.541C23.9511 11.262 22.5266 11.1917 21.2516 10.3388C19.1061 8.90552 18.8335 6.08297 20.6537 4.26282C21.6825 3.23405 23.0718 2.82957 24.3995 3.17249Z" fill="white"/>
<path d="M7.8689 13.5561C7.04236 13.732 6.67305 13.9342 6.44444 14.3475C6.09272 14.963 6.20703 15.4642 6.87529 16.2204C7.30615 16.7128 7.64907 17.3195 7.98321 18.1636C8.44923 19.3419 8.44923 19.3067 7.77218 19.9398C6.71702 20.9246 5.741 22.2436 5.06394 23.5889L4.74739 24.2308H3.37569C1.77537 24.2308 1.45003 24.3363 1.14227 24.9342C0.966412 25.2772 0.966412 25.4091 0.983998 29.6297C1.01038 33.8855 1.01038 33.9822 1.19503 34.2284C1.29175 34.3603 1.51158 34.5625 1.66985 34.6769C1.94243 34.8527 2.05674 34.8703 3.34931 34.8703H4.74739L5.06394 35.5034C6.33013 38.027 8.6163 40.2604 11.1399 41.4387C11.518 41.6145 11.8433 41.7728 11.8521 41.7816C11.8697 41.7904 11.7994 42.3267 11.6938 42.9598C11.4828 44.1909 11.5004 44.4986 11.7818 44.8943C12.1423 45.4043 12.2742 45.4219 15.466 45.4219C18.2182 45.4219 18.4029 45.4131 18.7282 45.246C19.1767 45.0174 19.3437 44.6833 19.5196 43.6633L19.6603 42.8279H22.1135H24.5668L24.7074 43.6633C24.8833 44.6833 25.0504 45.0174 25.4988 45.246C25.8242 45.4131 26.0088 45.4219 28.7698 45.4219C32.1287 45.4219 32.1375 45.4219 32.5332 44.6921L32.7442 44.2964L32.542 43.039C32.4101 42.23 32.3749 41.764 32.4277 41.7464C32.841 41.6145 34.1423 40.9023 34.8633 40.4275C36.0152 39.6713 37.6595 38.0358 38.4157 36.9015C41.2031 32.6984 41.4581 27.5018 39.0752 23.2284C38.8641 22.8503 38.6883 22.5074 38.6883 22.4546C38.6883 22.4107 39.0136 22.0413 39.4181 21.6457C40.3941 20.6696 41.08 20.3179 42.0296 20.3179C43.0672 20.3179 43.542 20.7048 43.2255 21.3027C43.1551 21.4434 42.9529 21.672 42.7858 21.8039C42.3901 22.1029 42.2055 22.4546 42.2055 22.9119C42.2055 23.8175 43.0056 24.4155 43.8761 24.1517C44.0608 24.0989 44.4125 23.8703 44.6587 23.6505C46.4173 22.0677 46.4173 19.764 44.6499 18.4714C42.6627 17.003 39.7522 17.5393 37.4924 19.7903L36.9473 20.3443L36.6483 20.0366C36.1471 19.5002 34.837 18.533 33.9577 18.0405C32.4277 17.1876 30.7131 16.6337 28.9281 16.4051C28.4533 16.3435 25.8066 16.3171 21.6915 16.3259L15.2022 16.3347L14.9297 15.9478C14.0679 14.7608 12.6523 13.8727 11.0959 13.5473C10.3397 13.3803 8.66027 13.3891 7.8689 13.5561ZM10.9113 16.2292C11.9664 16.5545 12.6435 17.1349 13.2678 18.2516C13.5228 18.7176 13.6635 18.8583 13.9976 19.0254L14.4109 19.2276L15.3166 19.0869C16.1079 18.9638 17.0488 18.9462 22.5971 18.9814C28.7083 19.0078 29.0072 19.0166 29.7194 19.1924C33.817 20.2036 36.7802 23.1229 37.7914 27.1325C37.9936 27.9414 38.02 28.2404 38.02 29.5066C38.02 30.7904 37.9936 31.0629 37.7914 31.8807C36.8769 35.5122 34.4589 38.1853 30.9065 39.4954C29.6227 39.9702 29.4205 40.3307 29.6667 41.7552C29.7458 42.2124 29.8074 42.6345 29.8074 42.6873C29.8074 42.7576 29.4469 42.784 28.5148 42.7664L27.2222 42.74L27.0816 41.9047C26.9057 40.8847 26.7386 40.5506 26.2902 40.3219C25.9648 40.1549 25.7802 40.1461 22.1135 40.1461C18.4468 40.1461 18.2622 40.1549 17.9369 40.3219C17.4884 40.5506 17.3213 40.8847 17.1455 41.9047L17.0048 42.74L15.7122 42.7664C14.7802 42.784 14.4197 42.7576 14.4197 42.6873C14.4197 42.6345 14.4812 42.2124 14.5604 41.7552C14.8066 40.3219 14.6219 39.9878 13.2942 39.4866C10.4189 38.3787 8.2382 36.2684 7.06874 33.4546C6.82253 32.8567 6.66426 32.6017 6.43564 32.4259C6.13668 32.1972 6.07513 32.1884 4.8617 32.1621L3.6043 32.1357V29.5066V26.8775L4.8617 26.8511C6.07513 26.8247 6.13668 26.8159 6.43564 26.5873C6.66426 26.4115 6.82253 26.1565 7.06874 25.5585C7.75459 23.9143 8.81854 22.4546 10.1111 21.3995C10.9289 20.7224 11.1663 20.3971 11.1663 19.9222C11.1663 19.3419 10.542 17.2668 10.0935 16.3787L9.93525 16.0533H10.1463C10.2606 16.0533 10.6035 16.1325 10.9113 16.2292Z" fill="white"/>
<path d="M17.4798 21.7772C17.1017 21.9707 16.7939 22.4895 16.7939 22.9115C16.7939 23.3512 17.1017 23.8524 17.4974 24.0546C17.8315 24.2217 18.0074 24.2305 23.4326 24.2305C28.8579 24.2305 29.0338 24.2217 29.3679 24.0546C29.7636 23.8524 30.0713 23.3512 30.0713 22.9115C30.0713 22.4719 29.7636 21.9707 29.3679 21.7684C29.0338 21.6014 28.8667 21.5926 23.4151 21.5926C18.0074 21.6014 17.7963 21.6102 17.4798 21.7772Z" fill="white"/>
<path d="M12.2034 24.4159C11.8253 24.6093 11.5176 25.1281 11.5176 25.5502C11.5176 26.2185 12.1683 26.8691 12.8365 26.8691C13.5048 26.8691 14.1555 26.2185 14.1555 25.5502C14.1555 25.1105 13.8477 24.6093 13.452 24.4071C13.0212 24.1873 12.6255 24.1873 12.2034 24.4159Z" fill="white"/>
</svg>
