<svg width="46" height="46" viewBox="0 0 46 46" fill="none" xmlns="http://www.w3.org/2000/svg">
<g clip-path="url(#clip0_62_7586)">
<path d="M45.2263 23.6386C44.9609 22.9774 44.541 22.1521 43.6869 21.6454C42.4177 20.8973 41.1389 20.9118 39.889 21.6888C39.3727 22.0122 38.8708 22.3403 38.3448 22.6927C38.1662 22.8133 37.9877 22.9291 37.8043 23.0498C37.7126 20.6705 37.0756 18.4552 35.8595 16.293C34.6386 14.1164 33.022 12.3983 31.0627 11.1724C31.5743 10.4291 31.7335 9.54594 31.5067 8.7303C31.2751 7.90019 30.6574 7.22934 29.7598 6.82876L31.6467 3.4359L31.719 3.30559C31.7818 3.19459 31.8445 3.08358 31.9024 2.97258C32.0617 2.6444 32.081 2.31138 31.9555 2.03629C31.8349 1.77567 31.5887 1.58262 31.2654 1.49575C30.7346 1.35579 30.1941 1.23996 29.6681 1.12895C29.422 1.07586 29.1711 1.0276 28.9249 0.969685C28.8526 0.955206 28.7802 0.931075 28.7126 0.91177L28.6113 0.882812H24.0268L23.8869 0.916596C23.8145 0.940728 23.7469 0.960033 23.6745 0.974511C23.4236 1.03243 23.1678 1.08552 22.9169 1.1386C22.3812 1.24961 21.8263 1.36544 21.2906 1.51023C21.0011 1.58745 20.7791 1.76602 20.6585 2.01216C20.533 2.27277 20.533 2.59613 20.6585 2.89536C20.7115 3.02084 20.7839 3.1415 20.8467 3.25733L22.8349 6.83358C21.9469 7.21969 21.3292 7.88088 21.0879 8.71582C20.8515 9.53629 21.0156 10.4243 21.5319 11.1772H21.5223C21.4161 11.2544 21.3051 11.322 21.1989 11.3944L21.0783 11.4716C20.9673 11.544 20.8611 11.6116 20.755 11.6936C16.9764 14.6376 14.9786 18.5276 14.8048 23.267C14.7952 23.5469 14.718 23.6241 14.4526 23.7351C14.2933 23.8027 14.1341 23.8703 13.9748 23.9427C13.2027 24.2708 12.4064 24.6087 11.7019 25.0768C11.0118 25.5353 10.37 26.0952 9.75229 26.6357C9.49652 26.8577 9.24076 27.0797 8.98499 27.2969C8.74371 27.4996 8.50242 27.7071 8.27078 27.9147L8.0295 28.127C7.0933 27.3452 6.82306 27.379 5.94478 28.2573L4.48258 29.7197C3.22789 30.9745 1.9732 32.2293 0.718506 33.4842C0.0863346 34.1164 0.0863346 34.6039 0.708855 35.2264C4.10135 38.6193 7.49384 42.017 10.8912 45.4098C11.2048 45.7235 11.4847 45.8828 11.7694 45.8828C12.0542 45.8828 12.3437 45.7235 12.667 45.4002C13.4054 44.6666 14.1389 43.933 14.8724 43.1946L16.3491 41.7178C16.9571 41.1096 17.57 40.5015 18.1732 39.8886C18.6606 39.3963 18.6799 38.9137 18.2456 38.3732C18.2359 38.3635 18.2263 38.349 18.2166 38.3394H21.8359C24.6252 38.3394 27.5062 38.3346 30.3389 38.3442H30.3678C31.6804 38.3442 32.7855 37.905 33.7459 37.0025L33.9485 36.8143C37.1335 33.822 40.4295 30.7284 43.6772 27.6975C44.2708 27.1473 44.9271 26.4813 45.2359 25.5595V23.682V23.6386H45.2263ZM10.481 30.6125L9.52548 29.6569C9.49652 29.628 9.47239 29.599 9.44344 29.5652C9.81502 29.2515 10.1866 28.9185 10.5437 28.6C12.0011 27.2921 13.3764 26.0614 15.3067 25.5546C18.1394 24.8114 20.7501 25.2988 23.0713 27.0025C23.9062 27.6154 24.7169 27.8857 25.6097 27.8423C26.377 27.8085 27.1587 27.8133 27.9164 27.823C28.1963 27.823 28.4761 27.8278 28.756 27.8326C29.7984 27.8326 30.5367 28.4986 30.5512 29.4494C30.556 29.8838 30.4016 30.2699 30.1072 30.5691C29.7743 30.9069 29.2917 31.0952 28.7464 31.0952C27.8005 31.0952 26.8499 31.0952 25.904 31.0952C24.881 31.0952 23.8579 31.0952 22.8397 31.0952C22.2944 31.0952 21.889 31.4137 21.807 31.9108C21.7249 32.3983 21.9952 32.8664 22.4488 33.0208C22.5984 33.0739 22.7625 33.0788 22.9169 33.0788H23.718C25.4649 33.0788 27.2118 33.0884 28.9587 33.0788C29.9383 33.0788 30.8504 32.6878 31.5308 31.9929C32.1968 31.3123 32.5491 30.4147 32.5298 29.4687C32.5201 29.0006 32.6938 28.8027 33.0365 28.5807C34.5469 27.601 36.0526 26.6116 37.563 25.6222C38.6874 24.8838 39.8118 24.1454 40.941 23.4118C41.4236 23.0981 41.9689 23.0305 42.437 23.2332C42.8906 23.4262 43.2091 23.8461 43.3105 24.3867C43.407 24.9031 43.2284 25.3616 42.7652 25.7959L34.6627 33.3876C33.8906 34.1068 33.1233 34.8259 32.3609 35.5546C31.8011 36.0903 31.1448 36.351 30.3534 36.351H25.6917C22.637 36.351 19.5775 36.351 16.5228 36.3413C16.3587 36.3413 16.1657 36.2737 16.074 36.182C14.2064 34.3336 12.3196 32.4417 10.4955 30.6125H10.481ZM34.8992 24.9948C34.103 25.4195 33.3501 25.9407 32.6166 26.4427C32.3705 26.6116 32.1244 26.7805 31.8783 26.9446C31.6997 27.0652 31.6418 27.0749 31.4874 26.9156C30.7973 26.2013 29.9287 25.8394 28.9056 25.8394C28.8863 25.8394 28.867 25.8394 28.8477 25.8394C28.481 25.8442 28.119 25.8394 27.733 25.8394H27.289C27.289 25.7959 27.289 25.7573 27.289 25.7187C27.289 25.5546 27.2938 25.4002 27.2794 25.2506C27.2601 25.0817 27.3083 25.0141 27.5013 24.9176C28.5823 24.3722 29.1662 23.2863 29.0215 22.0942C28.8863 20.9697 28.0177 20.0334 26.8595 19.7728C26.7389 19.7438 26.6134 19.739 26.4928 19.7293C26.4252 19.7293 26.3528 19.7197 26.2853 19.71C25.9089 19.6618 25.6869 19.488 25.5807 19.1598C25.489 18.8799 25.5614 18.6386 25.7979 18.4166C26.0536 18.1801 26.348 18.1415 26.6713 18.3056C26.8064 18.3732 26.9319 18.4697 27.067 18.5759L27.1925 18.6724C27.6702 19.0295 28.2542 18.9813 28.6113 18.5614C28.9877 18.1174 28.9298 17.5382 28.4761 17.1473C28.1528 16.8722 27.8295 16.655 27.511 16.5006C27.318 16.4089 27.2649 16.322 27.2794 16.1241C27.2938 15.9118 27.2938 15.6801 27.2794 15.4098C27.2504 14.8596 26.8306 14.4687 26.2853 14.4687C26.2756 14.4687 26.2708 14.4687 26.2611 14.4687C25.9764 14.4735 25.711 14.5894 25.5276 14.7873C25.3684 14.961 25.2863 15.1878 25.3056 15.4243C25.3442 16.0276 25.2429 16.4523 24.5963 16.8384C23.5491 17.4706 23.3367 18.8172 23.6649 19.821C24.022 20.9069 25.0016 21.6454 26.1646 21.7081C26.6665 21.7371 26.9898 21.9977 27.0284 22.4079C27.0477 22.601 26.9753 22.8133 26.8402 22.9678C26.7292 23.0981 26.5796 23.1705 26.43 23.1753C26.155 23.1898 25.8509 23.0353 25.5614 22.9002C25.4697 22.8568 25.3925 22.7699 25.3056 22.6782C25.2526 22.6203 25.1995 22.5575 25.1416 22.5093C24.741 22.1569 24.1716 22.1569 23.7904 22.5141C23.3898 22.8905 23.3416 23.4504 23.6794 23.8268C24.0075 24.1888 24.4032 24.5942 24.8761 24.821C25.2767 25.0141 25.3298 25.2264 25.2863 25.5691C25.2767 25.6463 25.2767 25.7235 25.2815 25.8394C25.2815 25.8539 25.2815 25.8683 25.2815 25.8876C25.2236 25.8683 25.1657 25.8539 25.1078 25.8345C24.9051 25.7766 24.7265 25.7235 24.6011 25.627C22.3233 23.8703 19.7319 23.0643 16.8896 23.2332C16.8509 23.2332 16.8172 23.2332 16.7737 23.2332C16.793 22.1425 16.9571 21.1 17.2756 20.0575C18.0477 17.5237 19.4038 15.4243 21.3003 13.8123C24.3598 11.211 27.8826 11.1338 30.9662 13.5952C33.9582 15.989 35.5796 19.2322 35.7871 23.2428C35.8257 23.9909 35.6858 24.5749 34.8799 25.0044L34.8992 24.9948ZM29.0745 8.76891C29.4799 8.89922 29.6922 9.2998 29.5764 9.70038C29.4606 10.0817 29.1131 10.2554 28.6354 10.154C28.0949 10.043 27.5448 9.94652 27.0091 9.85482C26.7775 9.81621 26.5459 9.7776 26.3094 9.73416H26.2901H26.2708C26.0392 9.77277 25.8075 9.81138 25.5759 9.84999C25.0499 9.93687 24.5094 10.0286 23.9786 10.1396C23.6311 10.212 23.1823 10.1975 23.0182 9.71486C22.9555 9.52181 22.9652 9.31911 23.0568 9.14536C23.1485 8.96196 23.3174 8.82683 23.5249 8.75443C25.3732 8.1608 27.2408 8.1608 29.0745 8.76409V8.76891ZM29.4123 3.33455C29.229 3.66756 29.0408 4.0054 28.8526 4.33841C28.5051 4.95617 28.1625 5.57393 27.8247 6.19652C27.733 6.36061 27.6606 6.40405 27.4627 6.3944C27.1635 6.38474 26.8595 6.37992 26.5603 6.37992C26.4011 6.37992 26.2467 6.37992 26.0922 6.37992C25.7641 6.37992 25.4359 6.37992 25.1078 6.37992C24.992 6.37992 24.852 6.322 24.8279 6.27857C24.3453 5.44362 23.882 4.60868 23.3946 3.7303L23.0665 3.1415C25.2139 2.69266 27.3228 2.69266 29.5089 3.13667C29.4799 3.20907 29.4509 3.27663 29.4123 3.33938V3.33455ZM15.9823 39.1454L11.7791 43.3442L2.84183 34.3963L7.04505 30.2071L15.9871 39.1502L15.9823 39.1454Z" fill="white"/>
<mask id="mask0_62_7586" style="mask-type:alpha" maskUnits="userSpaceOnUse" x="0" y="0" width="46" height="46">
<path d="M45.2263 23.6386C44.9609 22.9774 44.541 22.1521 43.6869 21.6454C42.4177 20.8973 41.1389 20.9118 39.889 21.6888C39.3727 22.0122 38.8708 22.3403 38.3448 22.6927C38.1662 22.8133 37.9877 22.9291 37.8043 23.0498C37.7126 20.6705 37.0756 18.4552 35.8595 16.293C34.6386 14.1164 33.022 12.3983 31.0627 11.1724C31.5743 10.4291 31.7335 9.54594 31.5067 8.7303C31.2751 7.90019 30.6574 7.22934 29.7598 6.82876L31.6467 3.4359L31.719 3.30559C31.7818 3.19459 31.8445 3.08358 31.9024 2.97258C32.0617 2.6444 32.081 2.31138 31.9555 2.03629C31.8349 1.77567 31.5887 1.58262 31.2654 1.49575C30.7346 1.35579 30.1941 1.23996 29.6681 1.12895C29.422 1.07586 29.1711 1.0276 28.9249 0.969685C28.8526 0.955206 28.7802 0.931075 28.7126 0.91177L28.6113 0.882812H24.0268L23.8869 0.916596C23.8145 0.940728 23.7469 0.960033 23.6745 0.974511C23.4236 1.03243 23.1678 1.08552 22.9169 1.1386C22.3812 1.24961 21.8263 1.36544 21.2906 1.51023C21.0011 1.58745 20.7791 1.76602 20.6585 2.01216C20.533 2.27277 20.533 2.59613 20.6585 2.89536C20.7115 3.02084 20.7839 3.1415 20.8467 3.25733L22.8349 6.83358C21.9469 7.21969 21.3292 7.88088 21.0879 8.71582C20.8515 9.53629 21.0156 10.4243 21.5319 11.1772H21.5223C21.4161 11.2544 21.3051 11.322 21.1989 11.3944L21.0783 11.4716C20.9673 11.544 20.8611 11.6116 20.755 11.6936C16.9764 14.6376 14.9786 18.5276 14.8048 23.267C14.7952 23.5469 14.718 23.6241 14.4526 23.7351C14.2933 23.8027 14.1341 23.8703 13.9748 23.9427C13.2027 24.2708 12.4064 24.6087 11.7019 25.0768C11.0118 25.5353 10.37 26.0952 9.75229 26.6357C9.49652 26.8577 9.24076 27.0797 8.98499 27.2969C8.74371 27.4996 8.50242 27.7071 8.27078 27.9147L8.0295 28.127C7.0933 27.3452 6.82306 27.379 5.94478 28.2573L4.48258 29.7197C3.22789 30.9745 1.9732 32.2293 0.718506 33.4842C0.0863346 34.1164 0.0863346 34.6039 0.708855 35.2264C4.10135 38.6193 7.49384 42.017 10.8912 45.4098C11.2048 45.7235 11.4847 45.8828 11.7694 45.8828C12.0542 45.8828 12.3437 45.7235 12.667 45.4002C13.4054 44.6666 14.1389 43.933 14.8724 43.1946L16.3491 41.7178C16.9571 41.1096 17.57 40.5015 18.1732 39.8886C18.6606 39.3963 18.6799 38.9137 18.2456 38.3732C18.2359 38.3635 18.2263 38.349 18.2166 38.3394H21.8359C24.6252 38.3394 27.5062 38.3346 30.3389 38.3442H30.3678C31.6804 38.3442 32.7855 37.905 33.7459 37.0025L33.9485 36.8143C37.1335 33.822 40.4295 30.7284 43.6772 27.6975C44.2708 27.1473 44.9271 26.4813 45.2359 25.5595V23.682V23.6386H45.2263ZM10.481 30.6125L9.52548 29.6569C9.49652 29.628 9.47239 29.599 9.44344 29.5652C9.81502 29.2515 10.1866 28.9185 10.5437 28.6C12.0011 27.2921 13.3764 26.0614 15.3067 25.5546C18.1394 24.8114 20.7501 25.2988 23.0713 27.0025C23.9062 27.6154 24.7169 27.8857 25.6097 27.8423C26.377 27.8085 27.1587 27.8133 27.9164 27.823C28.1963 27.823 28.4761 27.8278 28.756 27.8326C29.7984 27.8326 30.5367 28.4986 30.5512 29.4494C30.556 29.8838 30.4016 30.2699 30.1072 30.5691C29.7743 30.9069 29.2917 31.0952 28.7464 31.0952C27.8005 31.0952 26.8499 31.0952 25.904 31.0952C24.881 31.0952 23.8579 31.0952 22.8397 31.0952C22.2944 31.0952 21.889 31.4137 21.807 31.9108C21.7249 32.3983 21.9952 32.8664 22.4488 33.0208C22.5984 33.0739 22.7625 33.0788 22.9169 33.0788H23.718C25.4649 33.0788 27.2118 33.0884 28.9587 33.0788C29.9383 33.0788 30.8504 32.6878 31.5308 31.9929C32.1968 31.3123 32.5491 30.4147 32.5298 29.4687C32.5201 29.0006 32.6938 28.8027 33.0365 28.5807C34.5469 27.601 36.0526 26.6116 37.563 25.6222C38.6874 24.8838 39.8118 24.1454 40.941 23.4118C41.4236 23.0981 41.9689 23.0305 42.437 23.2332C42.8906 23.4262 43.2091 23.8461 43.3105 24.3867C43.407 24.9031 43.2284 25.3616 42.7652 25.7959L34.6627 33.3876C33.8906 34.1068 33.1233 34.8259 32.3609 35.5546C31.8011 36.0903 31.1448 36.351 30.3534 36.351H25.6917C22.637 36.351 19.5775 36.351 16.5228 36.3413C16.3587 36.3413 16.1657 36.2737 16.074 36.182C14.2064 34.3336 12.3196 32.4417 10.4955 30.6125H10.481ZM34.8992 24.9948C34.103 25.4195 33.3501 25.9407 32.6166 26.4427C32.3705 26.6116 32.1244 26.7805 31.8783 26.9446C31.6997 27.0652 31.6418 27.0749 31.4874 26.9156C30.7973 26.2013 29.9287 25.8394 28.9056 25.8394C28.8863 25.8394 28.867 25.8394 28.8477 25.8394C28.481 25.8442 28.119 25.8394 27.733 25.8394H27.289C27.289 25.7959 27.289 25.7573 27.289 25.7187C27.289 25.5546 27.2938 25.4002 27.2794 25.2506C27.2601 25.0817 27.3083 25.0141 27.5013 24.9176C28.5823 24.3722 29.1662 23.2863 29.0215 22.0942C28.8863 20.9697 28.0177 20.0334 26.8595 19.7728C26.7389 19.7438 26.6134 19.739 26.4928 19.7293C26.4252 19.7293 26.3528 19.7197 26.2853 19.71C25.9089 19.6618 25.6869 19.488 25.5807 19.1598C25.489 18.8799 25.5614 18.6386 25.7979 18.4166C26.0536 18.1801 26.348 18.1415 26.6713 18.3056C26.8064 18.3732 26.9319 18.4697 27.067 18.5759L27.1925 18.6724C27.6702 19.0295 28.2542 18.9813 28.6113 18.5614C28.9877 18.1174 28.9298 17.5382 28.4761 17.1473C28.1528 16.8722 27.8295 16.655 27.511 16.5006C27.318 16.4089 27.2649 16.322 27.2794 16.1241C27.2938 15.9118 27.2938 15.6801 27.2794 15.4098C27.2504 14.8596 26.8306 14.4687 26.2853 14.4687C26.2756 14.4687 26.2708 14.4687 26.2611 14.4687C25.9764 14.4735 25.711 14.5894 25.5276 14.7873C25.3684 14.961 25.2863 15.1878 25.3056 15.4243C25.3442 16.0276 25.2429 16.4523 24.5963 16.8384C23.5491 17.4706 23.3367 18.8172 23.6649 19.821C24.022 20.9069 25.0016 21.6454 26.1646 21.7081C26.6665 21.7371 26.9898 21.9977 27.0284 22.4079C27.0477 22.601 26.9753 22.8133 26.8402 22.9678C26.7292 23.0981 26.5796 23.1705 26.43 23.1753C26.155 23.1898 25.8509 23.0353 25.5614 22.9002C25.4697 22.8568 25.3925 22.7699 25.3056 22.6782C25.2526 22.6203 25.1995 22.5575 25.1416 22.5093C24.741 22.1569 24.1716 22.1569 23.7904 22.5141C23.3898 22.8905 23.3416 23.4504 23.6794 23.8268C24.0075 24.1888 24.4032 24.5942 24.8761 24.821C25.2767 25.0141 25.3298 25.2264 25.2863 25.5691C25.2767 25.6463 25.2767 25.7235 25.2815 25.8394C25.2815 25.8539 25.2815 25.8683 25.2815 25.8876C25.2236 25.8683 25.1657 25.8539 25.1078 25.8345C24.9051 25.7766 24.7265 25.7235 24.6011 25.627C22.3233 23.8703 19.7319 23.0643 16.8896 23.2332C16.8509 23.2332 16.8172 23.2332 16.7737 23.2332C16.793 22.1425 16.9571 21.1 17.2756 20.0575C18.0477 17.5237 19.4038 15.4243 21.3003 13.8123C24.3598 11.211 27.8826 11.1338 30.9662 13.5952C33.9582 15.989 35.5796 19.2322 35.7871 23.2428C35.8257 23.9909 35.6858 24.5749 34.8799 25.0044L34.8992 24.9948ZM29.0745 8.76891C29.4799 8.89922 29.6922 9.2998 29.5764 9.70038C29.4606 10.0817 29.1131 10.2554 28.6354 10.154C28.0949 10.043 27.5448 9.94652 27.0091 9.85482C26.7775 9.81621 26.5459 9.7776 26.3094 9.73416H26.2901H26.2708C26.0392 9.77277 25.8075 9.81138 25.5759 9.84999C25.0499 9.93687 24.5094 10.0286 23.9786 10.1396C23.6311 10.212 23.1823 10.1975 23.0182 9.71486C22.9555 9.52181 22.9652 9.31911 23.0568 9.14536C23.1485 8.96196 23.3174 8.82683 23.5249 8.75443C25.3732 8.1608 27.2408 8.1608 29.0745 8.76409V8.76891ZM29.4123 3.33455C29.229 3.66756 29.0408 4.0054 28.8526 4.33841C28.5051 4.95617 28.1625 5.57393 27.8247 6.19652C27.733 6.36061 27.6606 6.40405 27.4627 6.3944C27.1635 6.38474 26.8595 6.37992 26.5603 6.37992C26.4011 6.37992 26.2467 6.37992 26.0922 6.37992C25.7641 6.37992 25.4359 6.37992 25.1078 6.37992C24.992 6.37992 24.852 6.322 24.8279 6.27857C24.3453 5.44362 23.882 4.60868 23.3946 3.7303L23.0665 3.1415C25.2139 2.69266 27.3228 2.69266 29.5089 3.13667C29.4799 3.20907 29.4509 3.27663 29.4123 3.33938V3.33455ZM15.9823 39.1454L11.7791 43.3442L2.84183 34.3963L7.04505 30.2071L15.9871 39.1502L15.9823 39.1454Z" fill="black"/>
</mask>
<g mask="url(#mask0_62_7586)">
<path d="M19.4023 23.3325C16.7523 23.0675 15.3283 23.3139 14.6801 23.4991L11.9023 19.4991C12.3653 15.0547 13.2912 6.05469 13.2912 5.61024C13.2912 5.05469 21.069 -2.16745 22.4579 -2.72301C23.8468 -3.27856 28.2912 -2.72301 30.5135 -2.16745C32.7357 -1.6119 36.3468 2.83255 38.0135 5.05477C39.6801 7.27699 38.8001 22.4006 38.569 22.5547C37.7357 23.1102 36.1616 24.0176 34.9579 24.9436L31.069 25.6102L27.4579 25.8325L25.2357 25.8881C24.2172 25.0547 21.6246 23.5547 19.4023 23.3325Z" fill="white"/>
</g>
<path d="M19.288 33.0841C19.5583 33.0841 19.8092 32.9828 19.9974 32.7945C20.1856 32.6063 20.287 32.3554 20.2822 32.0803C20.2822 31.5397 19.8527 31.1102 19.317 31.0957C19.0468 31.0957 18.7862 31.1874 18.5931 31.3708C18.4049 31.5542 18.2988 31.8052 18.2939 32.0754C18.2939 32.3505 18.3905 32.6063 18.5787 32.7945C18.762 32.9828 19.013 33.0841 19.288 33.0841Z" fill="white"/>
</g>
<defs>
<clipPath id="clip0_62_7586">
<rect width="45" height="45" fill="white" transform="translate(0.236328 0.888672)"/>
</clipPath>
</defs>
</svg>
