<svg width="46" height="46" viewBox="0 0 46 46" fill="none" xmlns="http://www.w3.org/2000/svg">
<path d="M31.2618 1.03106C29.6094 1.31232 27.7547 2.11219 26.322 3.14059C24.9684 4.11625 23.5005 5.84782 22.7358 7.38602C21.936 8.98575 21.5932 10.3745 21.5316 12.3083C21.4789 13.9168 21.5932 14.8309 21.9887 16.2197L22.2172 17.002L20.8109 18.4083L19.3957 19.8235L15.1239 15.5517L10.8609 11.2887L10.3335 9.17913C10.0435 8.02768 9.76219 6.92017 9.71824 6.7268C9.63913 6.43673 9.31391 6.06757 7.89877 4.63484C6.94069 3.67676 6.06172 2.83295 5.92987 2.76263C5.6486 2.6132 4.963 2.60442 4.69052 2.73626C4.41804 2.8769 0.515402 6.77074 0.357187 7.05201C0.198972 7.35965 0.198972 8.02768 0.357187 8.33532C0.427505 8.46716 1.27132 9.34613 2.2294 10.3042C3.66212 11.7194 4.03129 12.0446 4.32135 12.1237C4.51472 12.1676 5.62223 12.4489 6.77368 12.739L8.88322 13.2663L13.1462 17.5294L17.418 21.8012L9.22602 29.9932C0.436294 38.8005 0.752724 38.4489 0.374766 39.7234C0.190182 40.3563 0.190182 41.7451 0.374766 42.3779C0.866991 44.0128 2.10634 45.2521 3.74123 45.7444C4.37409 45.929 5.76287 45.929 6.39573 45.7444C7.67023 45.3664 7.31865 45.6828 16.1259 36.8931L24.318 28.7011L25.8298 30.2217L27.3504 31.7336L25.9265 33.1575C25.153 33.9486 24.441 34.7221 24.3619 34.8891C24.1773 35.2582 24.2213 35.8735 24.4674 36.1987C24.7926 36.6294 25.0915 36.7876 25.5925 36.7876C25.9792 36.7876 26.1286 36.7349 26.4802 36.4976L26.8934 36.1987L31.341 40.6375C36.0874 45.3752 36.0962 45.3752 37.318 45.7444C37.9245 45.9202 39.2341 45.929 39.9021 45.7532C41.537 45.3313 42.8467 44.0392 43.3389 42.3779C43.4268 42.0791 43.4796 41.578 43.4796 41.0507C43.4796 40.1102 43.3477 39.5564 42.9346 38.7214C42.7061 38.2731 42.0029 37.526 38.2321 33.7464L33.7933 29.2988L34.0746 28.9033C34.4437 28.3759 34.5053 27.91 34.2591 27.3914C33.9427 26.741 33.1077 26.4509 32.466 26.7762C32.3078 26.8553 31.5431 27.5584 30.752 28.3319L29.3281 29.7559L27.8075 28.2352L26.2957 26.7234L27.7108 25.3083L29.1172 23.9019L29.9082 24.1217C32.8176 24.9567 35.8677 24.7369 38.4606 23.5064C41.9765 21.8451 44.4816 18.5314 45.1057 14.6991C45.3342 13.3191 45.2551 11.0953 44.9299 9.84715C44.6222 8.67811 44.3937 8.18589 44.0157 7.93978C43.6817 7.72003 42.9961 7.66729 42.6621 7.8343C42.5566 7.88704 41.2997 9.09123 39.8758 10.5064L37.2828 13.0818L35.6391 12.6686C34.7426 12.4489 33.9691 12.2379 33.9427 12.2028C33.9076 12.1676 33.6966 11.3941 33.4593 10.48L33.0462 8.80996L35.5864 6.27852C36.984 4.88095 38.1881 3.63281 38.2585 3.50097C38.4079 3.2197 38.4167 2.52531 38.2848 2.26162C38.0651 1.83971 37.8014 1.66391 37.0015 1.40901C36.5533 1.26838 35.8413 1.08379 35.4282 1.01347C34.4613 0.84647 32.2727 0.855259 31.2618 1.03106ZM34.0306 3.60644H34.3822L32.3342 5.65445C30.5411 7.44755 30.2686 7.75519 30.1983 8.07162C30.128 8.38805 30.2071 8.78359 30.8136 11.2183C31.4816 13.864 31.5343 14.0223 31.8068 14.3035C32.0881 14.5848 32.2551 14.6375 34.6986 15.2528C36.1138 15.6044 37.4059 15.9121 37.5465 15.9208C38.2848 15.9736 38.2145 16.0263 40.4295 13.8201L42.5303 11.7369L42.4863 13.0554C42.4424 14.5584 42.2402 15.4023 41.6337 16.6768C38.9265 22.3901 31.3761 23.6822 26.9021 19.217C25.153 17.4678 24.2301 15.2089 24.2301 12.7038C24.2301 7.98373 27.8426 4.04593 32.5803 3.60644C32.9934 3.57129 33.4065 3.5537 33.5032 3.57129C33.5999 3.58886 33.8372 3.60644 34.0306 3.60644ZM7.4417 8.89786C7.59992 9.52193 7.70539 10.0493 7.67902 10.0757C7.65266 10.102 7.12527 10.0054 6.5012 9.84715L5.37612 9.56588L4.43562 8.63416L3.48633 7.69366L4.38288 6.79711L5.28822 5.89177L6.22872 6.83227L7.16043 7.76398L7.4417 8.89786ZM24.1246 20.2278C24.6344 20.8782 25.5749 21.7924 26.1902 22.2407L26.6121 22.5395L16.5215 32.6389C9.12933 40.0311 6.31662 42.791 6.01777 42.9492C4.94542 43.503 3.55665 42.9844 3.09079 41.8681C2.89742 41.4023 2.92379 40.5936 3.14353 40.1453C3.26658 39.8904 6.5012 36.5943 13.4451 29.6504C19.009 24.0777 23.5884 19.551 23.6148 19.5862C23.6499 19.6213 23.8785 19.9114 24.1246 20.2278ZM40.5438 40.1014C40.9305 40.8661 40.7899 41.8769 40.1922 42.5273C39.6472 43.1426 38.487 43.3448 37.7399 42.9756C37.4938 42.8526 35.9204 41.3407 33.0901 38.5192L28.8007 34.2386L30.3126 32.7268L31.8332 31.2062L36.0786 35.4428C39.0847 38.4489 40.3856 39.8113 40.5438 40.1014Z" fill="white"/>
<mask id="mask0_62_7580" style="mask-type:alpha" maskUnits="userSpaceOnUse" x="0" y="0" width="46" height="46">
<path d="M31.2618 1.03106C29.6094 1.31232 27.7547 2.11219 26.322 3.14059C24.9684 4.11625 23.5005 5.84782 22.7358 7.38602C21.936 8.98575 21.5932 10.3745 21.5316 12.3083C21.4789 13.9168 21.5932 14.8309 21.9887 16.2197L22.2172 17.002L20.8109 18.4083L19.3957 19.8235L15.1239 15.5517L10.8609 11.2887L10.3335 9.17913C10.0435 8.02768 9.76219 6.92017 9.71824 6.7268C9.63913 6.43673 9.31391 6.06757 7.89877 4.63484C6.94069 3.67676 6.06172 2.83295 5.92987 2.76263C5.6486 2.6132 4.963 2.60442 4.69052 2.73626C4.41804 2.8769 0.515402 6.77074 0.357187 7.05201C0.198972 7.35965 0.198972 8.02768 0.357187 8.33532C0.427505 8.46716 1.27132 9.34613 2.2294 10.3042C3.66212 11.7194 4.03129 12.0446 4.32135 12.1237C4.51472 12.1676 5.62223 12.4489 6.77368 12.739L8.88322 13.2663L13.1462 17.5294L17.418 21.8012L9.22602 29.9932C0.436294 38.8005 0.752724 38.4489 0.374766 39.7234C0.190182 40.3563 0.190182 41.7451 0.374766 42.3779C0.866991 44.0128 2.10634 45.2521 3.74123 45.7444C4.37409 45.929 5.76287 45.929 6.39573 45.7444C7.67023 45.3664 7.31865 45.6828 16.1259 36.8931L24.318 28.7011L25.8298 30.2217L27.3504 31.7336L25.9265 33.1575C25.153 33.9486 24.441 34.7221 24.3619 34.8891C24.1773 35.2582 24.2213 35.8735 24.4674 36.1987C24.7926 36.6294 25.0915 36.7876 25.5925 36.7876C25.9792 36.7876 26.1286 36.7349 26.4802 36.4976L26.8934 36.1987L31.341 40.6375C36.0874 45.3752 36.0962 45.3752 37.318 45.7444C37.9245 45.9202 39.2341 45.929 39.9021 45.7532C41.537 45.3313 42.8467 44.0392 43.3389 42.3779C43.4268 42.0791 43.4796 41.578 43.4796 41.0507C43.4796 40.1102 43.3477 39.5564 42.9346 38.7214C42.7061 38.2731 42.0029 37.526 38.2321 33.7464L33.7933 29.2988L34.0746 28.9033C34.4437 28.3759 34.5053 27.91 34.2591 27.3914C33.9427 26.741 33.1077 26.4509 32.466 26.7762C32.3078 26.8553 31.5431 27.5584 30.752 28.3319L29.3281 29.7559L27.8075 28.2352L26.2957 26.7234L27.7108 25.3083L29.1172 23.9019L29.9082 24.1217C32.8176 24.9567 35.8677 24.7369 38.4606 23.5064C41.9765 21.8451 44.4816 18.5314 45.1057 14.6991C45.3342 13.3191 45.2551 11.0953 44.9299 9.84715C44.6222 8.67811 44.3937 8.18589 44.0157 7.93978C43.6817 7.72003 42.9961 7.66729 42.6621 7.8343C42.5566 7.88704 41.2997 9.09123 39.8758 10.5064L37.2828 13.0818L35.6391 12.6686C34.7426 12.4489 33.9691 12.2379 33.9427 12.2028C33.9076 12.1676 33.6966 11.3941 33.4593 10.48L33.0462 8.80996L35.5864 6.27852C36.984 4.88095 38.1881 3.63281 38.2585 3.50097C38.4079 3.2197 38.4167 2.52531 38.2848 2.26162C38.0651 1.83971 37.8014 1.66391 37.0015 1.40901C36.5533 1.26838 35.8413 1.08379 35.4282 1.01347C34.4613 0.84647 32.2727 0.855259 31.2618 1.03106ZM34.0306 3.60644H34.3822L32.3342 5.65445C30.5411 7.44755 30.2686 7.75519 30.1983 8.07162C30.128 8.38805 30.2071 8.78359 30.8136 11.2183C31.4816 13.864 31.5343 14.0223 31.8068 14.3035C32.0881 14.5848 32.2551 14.6375 34.6986 15.2528C36.1138 15.6044 37.4059 15.9121 37.5465 15.9208C38.2848 15.9736 38.2145 16.0263 40.4295 13.8201L42.5303 11.7369L42.4863 13.0554C42.4424 14.5584 42.2402 15.4023 41.6337 16.6768C38.9265 22.3901 31.3761 23.6822 26.9021 19.217C25.153 17.4678 24.2301 15.2089 24.2301 12.7038C24.2301 7.98373 27.8426 4.04593 32.5803 3.60644C32.9934 3.57129 33.4065 3.5537 33.5032 3.57129C33.5999 3.58886 33.8372 3.60644 34.0306 3.60644ZM7.4417 8.89786C7.59992 9.52193 7.70539 10.0493 7.67902 10.0757C7.65266 10.102 7.12527 10.0054 6.5012 9.84715L5.37612 9.56588L4.43562 8.63416L3.48633 7.69366L4.38288 6.79711L5.28822 5.89177L6.22872 6.83227L7.16043 7.76398L7.4417 8.89786ZM24.1246 20.2278C24.6344 20.8782 25.5749 21.7924 26.1902 22.2407L26.6121 22.5395L16.5215 32.6389C9.12933 40.0311 6.31662 42.791 6.01777 42.9492C4.94542 43.503 3.55665 42.9844 3.09079 41.8681C2.89742 41.4023 2.92379 40.5936 3.14353 40.1453C3.26658 39.8904 6.5012 36.5943 13.4451 29.6504C19.009 24.0777 23.5884 19.551 23.6148 19.5862C23.6499 19.6213 23.8785 19.9114 24.1246 20.2278ZM40.5438 40.1014C40.9305 40.8661 40.7899 41.8769 40.1922 42.5273C39.6472 43.1426 38.487 43.3448 37.7399 42.9756C37.4938 42.8526 35.9204 41.3407 33.0901 38.5192L28.8007 34.2386L30.3126 32.7268L31.8332 31.2062L36.0786 35.4428C39.0847 38.4489 40.3856 39.8113 40.5438 40.1014Z" fill="black"/>
</mask>
<g mask="url(#mask0_62_7580)">
<path d="M0.234375 21.7531V5.45713L3.92224 0.882812L10.1632 2.02639L20.0921 19.1801L17.1106 22.0907L0.234375 21.7531Z" fill="white"/>
<path d="M21.6104 34.3522L23.8605 29.2893L26.392 26.7579L33.1425 25.6328L40.7368 31.8208L44.6746 40.2589L40.7368 48.1345L29.4859 45.3218L23.298 38.29L21.6104 34.3522Z" fill="white"/>
</g>
</svg>
