<svg width="46" height="48" viewBox="0 0 46 48" fill="none" xmlns="http://www.w3.org/2000/svg">
<path d="M21.1378 1.03622C20.1681 1.45329 19.8657 2.70451 20.5122 3.54908C20.9501 4.13298 21.3046 4.22683 22.9521 4.22683H24.4222V6.0828V7.93878L23.4108 8.07433C21.3151 8.35585 18.6145 9.22128 16.8107 10.2014C14.2665 11.5777 11.6598 13.7674 11.3887 14.7371C11.1593 15.6129 11.6807 16.5096 12.5669 16.7495C13.1925 16.9163 13.7035 16.7286 14.4021 16.0717C17.0505 13.5901 19.5946 12.2138 22.8895 11.5048C24.3284 11.192 27.6337 11.1711 29.0622 11.4526C34.7031 12.5787 39.3013 16.2907 41.3867 21.4415C43.5138 26.6862 42.909 32.4106 39.7184 37.1235C38.8009 38.479 36.7572 40.4914 35.3391 41.4298C30.9703 44.3389 25.7152 45.0375 20.7729 43.3587C18.4164 42.5663 16.55 41.4089 14.4021 39.407C13.9329 38.9586 13.6096 38.7501 13.3385 38.6979C12.129 38.4686 11.0759 39.5634 11.3887 40.7312C11.6911 41.8469 14.7357 44.2554 17.551 45.6214C28.3115 50.8035 41.1782 45.3503 44.9527 33.9954C47.0276 27.7706 45.912 21.0036 41.9498 15.7485L41.3137 14.9143L42.7109 13.5067C44.2124 11.9844 44.4105 11.6507 44.2854 10.8896C44.1915 10.3265 43.5868 9.69049 43.055 9.59665C42.2104 9.42982 42.0019 9.55494 40.417 11.119L38.9573 12.5683L38.3316 12.0887C35.6207 9.96159 32.2841 8.54354 28.8015 8.05347L27.811 7.91793L27.7797 6.07238L27.7588 4.22683H29.2707C30.5741 4.22683 30.8452 4.19555 31.1893 4.01829C32.3466 3.43439 32.3779 1.76609 31.2414 1.13006C30.8348 0.89024 30.8035 0.89024 26.1427 0.900665C22.4724 0.900665 21.3776 0.931946 21.1378 1.03622Z" fill="white"/>
<path d="M25.3919 18.6784C24.5369 19.1059 24.4326 19.5021 24.4326 22.2131C24.4326 23.4122 24.4743 24.726 24.5265 25.1222C24.7976 26.9469 26.2052 28.6047 27.9777 29.1574C28.5304 29.3346 28.9474 29.3555 31.2101 29.3555C34.067 29.3555 34.1609 29.3346 34.6718 28.7299C35.4225 27.8436 34.8907 26.3838 33.7438 26.1127C33.5144 26.071 32.3466 26.0189 31.1371 26.0189C29.0309 26.0189 28.9266 26.0085 28.5929 25.7791C27.8526 25.289 27.8213 25.1222 27.7588 22.2131C27.7171 19.8879 27.6858 19.5751 27.5085 19.2727C27.1019 18.6054 26.1113 18.3239 25.3919 18.6784Z" fill="white"/>
<path d="M2.2649 18.9174C1.75399 19.0425 1.39947 19.3345 1.15966 19.835C0.773863 20.6274 1.00325 21.3886 1.79569 21.9203L2.13978 22.1602H7.9371C13.5363 22.1602 13.7448 22.1497 14.0785 21.9516C15.1316 21.3052 15.0899 19.7307 13.9951 19.0947C13.6406 18.8861 13.4737 18.8757 8.10393 18.8548C5.06972 18.8444 2.43173 18.8757 2.2649 18.9174Z" fill="white"/>
<path d="M5.727 26.1649C4.97627 26.436 4.61133 26.9573 4.61133 27.7602C4.61133 28.3545 4.88243 28.855 5.36206 29.1469C5.69572 29.345 5.90426 29.3555 11.5035 29.3555H17.3008L17.6449 29.1157C18.1349 28.7924 18.3852 28.4171 18.4477 27.9166C18.5207 27.3431 18.1766 26.6341 17.6657 26.3108L17.2799 26.071L11.7016 26.0502C7.17633 26.0293 6.05023 26.0502 5.727 26.1649Z" fill="white"/>
<path d="M2.13944 33.3288C1.0759 33.6416 0.637972 35.0805 1.347 35.9251C1.88919 36.5716 1.6598 36.5507 7.96804 36.5507C13.536 36.5507 13.7445 36.5403 14.0782 36.3422C15.1313 35.6957 15.0896 34.1213 13.9947 33.4852C13.6402 33.2767 13.4734 33.2663 8.05145 33.2454C4.81913 33.235 2.33755 33.2663 2.13944 33.3288Z" fill="white"/>
</svg>
