<svg width="46" height="46" viewBox="0 0 46 46" fill="none" xmlns="http://www.w3.org/2000/svg">
<path d="M22.7363 0.913593C22.1826 1.2827 22.1562 1.39694 22.1562 3.42702C22.1562 5.08799 22.1738 5.29891 22.3232 5.5274C22.5957 5.93166 22.9296 6.10742 23.4745 6.10742C24.0193 6.10742 24.3533 5.93166 24.6257 5.5274C24.7751 5.29891 24.7927 5.08799 24.7927 3.42702C24.7927 1.76605 24.7751 1.55513 24.6257 1.32664C24.3533 0.922381 24.0193 0.746617 23.4745 0.746617C23.1493 0.746617 22.912 0.799347 22.7363 0.913593Z" fill="white"/>
<path d="M7.92775 7.14352C7.50592 7.35444 7.28621 7.68839 7.24227 8.18932C7.18075 8.81328 7.38288 9.14723 8.55171 10.2985C9.83479 11.5728 10.2478 11.7485 11.0564 11.3882C11.7155 11.0894 11.9703 10.237 11.6188 9.55149C11.4079 9.14723 9.44811 7.20504 9.11416 7.08201C8.75384 6.94139 8.2617 6.96776 7.92775 7.14352Z" fill="white"/>
<path d="M37.7554 7.12715C37.3775 7.32049 35.532 9.16602 35.3298 9.5527C34.9871 10.2206 35.2332 11.0555 35.8659 11.3806C36.6744 11.7937 37.1666 11.5652 38.5639 10.1327C39.4251 9.2539 39.6448 8.97268 39.6888 8.70903C39.7767 8.27841 39.6888 7.79506 39.4867 7.51383C39.1351 7.03048 38.3002 6.84593 37.7554 7.12715Z" fill="white"/>
<path d="M21.3742 11.5209C17.1823 12.224 13.5615 15.3702 12.1818 19.4918C11.6106 21.1967 11.6106 21.2055 11.6106 29.941V37.8328H10.7142C9.72109 37.8328 9.46623 37.9295 9.14107 38.4128C8.99167 38.6501 8.97409 38.861 8.97409 40.8823V43.1057H6.75947C4.72939 43.1057 4.51847 43.1233 4.28119 43.2727C3.87694 43.5451 3.70117 43.8791 3.70117 44.424C3.70117 44.9688 3.87694 45.3028 4.28119 45.5752C4.52726 45.7334 5.07213 45.7422 23.4746 45.7422C41.8771 45.7422 42.422 45.7334 42.6681 45.5752C43.0723 45.3028 43.2481 44.9688 43.2481 44.424C43.2481 43.8791 43.0723 43.5451 42.6681 43.2727C42.4308 43.1233 42.2199 43.1057 40.1986 43.1057H37.9752V40.8823C37.9752 38.861 37.9576 38.6501 37.8082 38.4128C37.483 37.9295 37.2282 37.8328 36.2439 37.8328H35.3387V29.941C35.3387 21.1879 35.3387 21.1967 34.7587 19.4655C33.3789 15.3262 29.7318 12.2064 25.4959 11.5121C24.4677 11.3452 22.3849 11.354 21.3742 11.5209ZM24.4853 14.1398C26.2429 14.2804 28.2203 15.1768 29.6879 16.5126C30.8743 17.5936 31.9552 19.4039 32.3507 20.9507C32.6583 22.1722 32.7022 23.3059 32.7022 30.7319V37.8328H23.4746H14.247V30.7319C14.247 23.3586 14.2997 22.0931 14.5985 20.9155C14.8182 20.0718 15.3983 18.8239 15.9256 18.0506C16.4089 17.3299 17.5602 16.1787 18.2808 15.6953C19.063 15.1592 20.3109 14.588 21.1721 14.3683C21.8928 14.1838 23.211 14.0256 23.6504 14.0695C23.7734 14.0871 24.1513 14.1134 24.4853 14.1398ZM35.3387 41.7875V43.1057H23.4746H11.6106V41.7875V40.4693H23.4746H35.3387V41.7875Z" fill="white"/>
<path d="M22.7363 19.4568C22.6044 19.5447 22.4111 19.738 22.3232 19.8699C22.165 20.1071 22.1562 20.3356 22.1562 23.2445C22.1562 26.1534 22.165 26.3819 22.3232 26.6192C22.5957 27.0235 22.9296 27.1992 23.4745 27.1992C24.0193 27.1992 24.3533 27.0235 24.6257 26.6192C24.7839 26.3819 24.7927 26.1534 24.7927 23.2445C24.7927 20.3356 24.7839 20.1071 24.6257 19.8699C24.3533 19.4656 24.0193 19.2898 23.4745 19.2898C23.1493 19.2898 22.912 19.3426 22.7363 19.4568Z" fill="white"/>
<path d="M22.7363 30.0032C22.332 30.2756 22.1562 30.6096 22.1562 31.1544C22.1562 31.6993 22.332 32.0332 22.7363 32.3057C22.912 32.4199 23.1493 32.4727 23.4745 32.4727C24.3094 32.4727 24.7927 31.9893 24.7927 31.1544C24.7927 30.3195 24.3094 29.8362 23.4745 29.8362C23.1493 29.8362 22.912 29.8889 22.7363 30.0032Z" fill="white"/>
<path d="M1.55658 22.093C1.15233 22.3654 0.976562 22.6994 0.976562 23.2443C0.976562 23.7891 1.15233 24.1231 1.55658 24.3955C1.78508 24.5449 1.99599 24.5625 3.65696 24.5625C5.68704 24.5625 5.80129 24.5361 6.17039 23.9825C6.39888 23.6397 6.39888 22.8488 6.17039 22.5061C5.80129 21.9524 5.68704 21.926 3.65696 21.926C1.99599 21.926 1.78508 21.9436 1.55658 22.093Z" fill="white"/>
<path d="M41.1913 22.093C40.7871 22.3654 40.6113 22.6994 40.6113 23.2443C40.6113 23.7891 40.7871 24.1231 41.1913 24.3955C41.4198 24.5449 41.6308 24.5625 43.2917 24.5625C45.3218 24.5625 45.4361 24.5361 45.8052 23.9825C46.0336 23.6397 46.0336 22.8488 45.8052 22.5061C45.4361 21.9524 45.3218 21.926 43.2917 21.926C41.6308 21.926 41.4198 21.9436 41.1913 22.093Z" fill="white"/>
</svg>
