<svg width="46" height="46" viewBox="0 0 46 46" fill="none" xmlns="http://www.w3.org/2000/svg">
<g clip-path="url(#clip0_62_227)">
<path d="M21.218 0.566582C17.7024 0.988457 14.1955 2.42986 11.4358 4.58318C10.592 5.24236 8.95727 6.86834 8.27172 7.72088C6.39086 10.0851 4.97582 13.0734 4.39574 15.9387C4.14965 17.1603 4.1936 17.4679 4.69457 17.9689C5.27465 18.5402 6.05688 18.5666 6.68969 18.0392C7.05004 17.7316 7.09399 17.6349 7.31371 16.633C8.18383 12.5724 10.4163 9.0656 13.6418 6.69256C14.6789 5.92791 15.3118 5.54119 16.4631 4.99627C21.5432 2.57049 27.7659 3.00994 32.4856 6.11248C36.177 8.54705 38.717 12.2648 39.6047 16.5539C39.9211 18.0832 40.2024 18.4435 41.1252 18.5138C41.7405 18.5578 42.0745 18.4172 42.426 17.9601C42.7688 17.5031 42.7864 17.0197 42.5051 15.7629C41.7229 12.2209 40.0618 9.09197 37.5832 6.4992C33.3118 2.03436 27.2473 -0.16291 21.218 0.566582Z" fill="white"/>
<path d="M21.3674 5.12811C19.3547 5.40936 16.6828 6.35858 16.1994 6.97381C15.4172 7.96698 16.0764 9.3908 17.3156 9.3908C17.5354 9.3908 17.9572 9.25897 18.4494 9.04803C20.1721 8.29217 21.6047 7.98455 23.468 7.98455C25.3313 7.98455 26.6672 8.27459 28.5656 9.10077C29.6379 9.56659 30.0246 9.57538 30.5608 9.17108C31.2111 8.6701 31.3693 7.78241 30.9211 7.13202C30.4465 6.4201 27.7395 5.41815 25.4983 5.11932C24.3645 4.96991 22.4924 4.9787 21.3674 5.12811Z" fill="white"/>
<path d="M4.8877 21.5547C4.5625 21.7041 4.18457 22.0996 4.06152 22.4248C4 22.5918 3.96484 24.3057 3.96484 27.5225C3.96484 32.8662 3.98242 33.0244 4.50977 34.0176C5.31836 35.5293 6.75977 36.3906 8.49121 36.3906C10.5127 36.3906 12.209 35.1074 12.7891 33.1299C12.9121 32.7256 12.9297 32.0752 12.9297 28.8936C12.9297 25.3955 12.9209 25.1055 12.7539 24.5781C12.3057 23.1104 11.084 21.9678 9.53711 21.5635C8.85156 21.3877 5.2832 21.3789 4.8877 21.5547ZM9.15039 24.6133C9.41406 24.7451 9.61621 24.9385 9.73926 25.167C9.93262 25.5098 9.94141 25.5625 9.94141 28.8496V32.1807L9.72168 32.5586C9.48438 32.9541 8.93066 33.2969 8.50879 33.2969C8.21875 33.2969 7.68262 33.0859 7.44531 32.875C7.35742 32.7959 7.20801 32.5674 7.12012 32.374C6.9707 32.0488 6.95312 31.7236 6.95312 28.2168V24.4199H7.8584C8.62305 24.4199 8.8252 24.4551 9.15039 24.6133Z" fill="white"/>
<path d="M37.3809 21.5719C35.8604 21.9762 34.6475 23.1276 34.1992 24.5778C34.0322 25.1051 34.0234 25.3952 34.0234 28.902C34.0234 32.4089 34.0322 32.6989 34.1992 33.2175C34.4365 33.9821 34.7705 34.527 35.3418 35.1071C36.291 36.0651 37.7764 36.5661 39.0596 36.3639C39.3496 36.3112 39.6221 36.2585 39.666 36.2321C39.8154 36.1442 39.7275 36.4518 39.4551 36.988C39.1035 37.6911 38.2773 38.5348 37.5654 38.904C36.5898 39.4137 36.2646 39.4489 31.7734 39.4489H27.7217L27.4316 38.8688C26.7285 37.4362 25.1289 36.4606 23.4766 36.4606C22.1846 36.4606 21.2441 36.8473 20.3037 37.779C19.3809 38.6842 18.9941 39.6335 18.9941 40.9518C18.9941 42.6657 19.8994 44.151 21.3848 44.9069C22.7031 45.5749 24.0303 45.5925 25.3926 44.9772C26.1045 44.6608 27.124 43.6676 27.4668 42.9469L27.7129 42.446L32.2041 42.4196C37.2227 42.3757 37.1523 42.3844 38.5674 41.7341C40.2812 40.9342 41.4854 39.7389 42.2764 38.0251C42.9707 36.5397 42.9355 36.944 42.9707 29.5173C42.9883 25.8698 42.9707 22.7497 42.9443 22.5915C42.8828 22.2399 42.4258 21.7038 42.0479 21.5544C41.6436 21.3786 38.0312 21.3962 37.3809 21.5719ZM40 28.2165C40 31.7233 39.9824 32.0485 39.833 32.3737C39.7451 32.5671 39.5957 32.7956 39.5078 32.8747C39.2705 33.0856 38.7344 33.2966 38.4443 33.2966C38.0225 33.2966 37.4688 32.9538 37.2314 32.5583L37.0117 32.1803V28.8493C37.0117 25.5622 37.0205 25.5094 37.2139 25.1667C37.5303 24.6042 37.9873 24.4196 39.0947 24.4196H40V28.2165ZM24.3379 39.7038C24.4961 39.8092 24.6982 40.0553 24.7949 40.2399C25.5244 41.6813 23.7402 43.1139 22.5361 42.0593C21.9736 41.5671 21.833 40.8815 22.1582 40.2399C22.3164 39.9323 22.6328 39.6423 22.9492 39.5104C23.2393 39.3874 24.0566 39.5016 24.3379 39.7038Z" fill="white"/>
</g>
<defs>
<clipPath id="clip0_62_227">
<rect width="45" height="45" fill="white" transform="translate(0.976562 0.425781)"/>
</clipPath>
</defs>
</svg>
