<svg width="46" height="46" viewBox="0 0 46 46" fill="none" xmlns="http://www.w3.org/2000/svg">
<path d="M18.6861 2.22803C18.0884 2.49171 17.8511 2.96632 17.8511 3.8628V4.46046L17.3501 4.74171C15.6802 5.67335 14.107 7.3169 13.2544 9.0044C12.9556 9.61085 12.5952 10.648 12.4634 11.3247L12.3491 11.8872L11.9185 12.0015C10.8989 12.2564 10.4859 13.4517 11.145 14.2427C11.4966 14.6558 11.8394 14.7612 12.7886 14.7612H13.6148L13.6499 16.8442C13.6851 18.6284 13.7202 19.0415 13.8872 19.6392C14.2388 20.9575 15.0122 22.3462 15.9439 23.3394L16.4448 23.8843V25.2378C16.4448 26.4683 16.4273 26.6265 16.2515 26.978C15.9175 27.6284 15.8208 27.6548 12.4195 28.0855C10.7407 28.2876 9.13235 28.5249 8.84231 28.604C7.06692 29.0874 5.49368 30.6519 4.98391 32.4273C4.79055 33.1216 3.76223 41.436 3.83254 41.8052C3.90286 42.2007 4.3511 42.6841 4.73782 42.7983C4.96633 42.8687 8.89504 42.8862 17.3413 42.8687C29.5845 42.8423 29.6197 42.8423 29.857 42.6577C30.3228 42.3149 30.4634 42.0337 30.4634 41.48C30.4634 40.9263 30.3228 40.645 29.857 40.3023C29.6197 40.1177 29.5318 40.1177 22.3247 40.0913L15.0386 40.0737V38.6675V37.2612L21.27 37.2437C27.4136 37.2173 27.5103 37.2173 27.7476 37.0327C28.2134 36.6899 28.354 36.4087 28.354 35.855C28.354 35.3013 28.2134 35.02 27.7476 34.6773C27.5103 34.4927 27.4048 34.4927 21.9732 34.4663L16.4448 34.4487V32.3833V30.3267L16.9107 30.0982C17.1568 29.9663 17.4029 29.8345 17.4468 29.7905C17.4907 29.7466 17.7017 29.8608 17.939 30.0806C18.5191 30.5991 19.3628 31.0737 20.1802 31.3462C20.7779 31.5396 21.0415 31.5747 21.982 31.5835C22.7642 31.5923 23.2476 31.5483 23.6519 31.4341C24.4429 31.2319 25.6206 30.6167 25.937 30.2651C26.7193 29.3687 26.0689 27.9448 24.8736 27.9448C24.7066 27.9448 24.232 28.1294 23.7574 28.3579C22.9312 28.771 22.9048 28.7798 22.0786 28.7798C21.2964 28.7798 21.1822 28.7534 20.646 28.4898C20.312 28.3228 19.8726 28.0151 19.6177 27.7603L19.187 27.312L19.231 26.4595C19.2573 25.9937 19.2925 25.6069 19.3013 25.5894C19.3189 25.5718 19.6529 25.6509 20.0572 25.7476C21.6304 26.1519 23.4058 26.0552 24.9966 25.4839C27.1411 24.7017 29.0659 22.812 29.9273 20.6411C30.3755 19.4898 30.437 19.0679 30.481 16.8442L30.5249 14.7612H31.3511C32.3003 14.7612 32.6431 14.6558 32.9947 14.2427C33.6538 13.4517 33.2407 12.2564 32.2212 12.0015L31.7906 11.8872L31.6763 11.3247C31.1402 8.66163 29.2593 6.12159 26.8072 4.7505L26.3062 4.46925L26.2798 3.73096C26.2447 2.93995 26.1304 2.69386 25.6382 2.3335C25.4097 2.15772 25.2779 2.14893 22.1753 2.13136C19.6177 2.11378 18.897 2.13136 18.6861 2.22803ZM23.4937 6.57862C23.52 8.09913 23.5376 8.26612 23.7046 8.48585C24.0474 8.95167 24.3286 9.09229 24.8824 9.09229C25.3218 9.09229 25.4449 9.05714 25.7349 8.81983C25.9546 8.64405 26.1128 8.41553 26.2007 8.15186L26.3413 7.75636L26.7456 8.11671C27.3433 8.65284 27.9234 9.41749 28.3013 10.1733C28.6001 10.7622 28.9253 11.6587 28.9253 11.8784C28.9253 11.9136 25.8404 11.9487 22.0611 11.9487H15.1968L15.2583 11.6587C15.4781 10.6128 16.2515 9.26807 17.148 8.37159L17.7984 7.7212L17.9126 8.10792C18.1939 9.07471 19.3892 9.44386 20.145 8.81104C20.6109 8.41553 20.6636 8.16944 20.6636 6.45557V4.91749H22.0611H23.4673L23.4937 6.57862ZM27.6773 16.7124C27.6421 18.4175 27.6157 18.7515 27.4488 19.2437C27.0269 20.5093 26.0161 21.7661 24.8824 22.4341C22.1226 24.0425 18.5015 22.9702 17.0777 20.1226C16.5503 19.0679 16.4448 18.4702 16.4448 16.4487V14.7612H22.0786H27.7124L27.6773 16.7124ZM13.6323 32.5942V34.4312L13.3247 34.4839C12.9468 34.5542 12.4986 34.9233 12.3491 35.3013C12.2525 35.5122 12.2261 36.1362 12.2261 37.8325V40.0737H9.50149H6.76809L6.82082 39.7837C6.84719 39.6343 7.04055 38.0962 7.25149 36.3735C7.68215 32.9107 7.74368 32.6821 8.40286 32.0317C9.00051 31.4253 9.39602 31.3023 11.5142 31.021C12.5601 30.8892 13.4654 30.7749 13.5269 30.7661C13.606 30.7573 13.6323 31.1792 13.6323 32.5942Z" fill="white"/>
<path d="M32.327 22.126C30.1034 23.2773 28.5389 25.2461 27.9413 27.6455C27.6864 28.6562 27.6688 30.5635 27.8973 31.4775C28.4071 33.543 29.6024 35.3184 31.2548 36.4873L31.87 36.918L31.9139 39.458C31.9579 41.8486 31.9667 42.0068 32.1425 42.2354C32.4852 42.7012 32.7665 42.8418 33.3202 42.8418C33.8739 42.8418 34.1552 42.7012 34.4979 42.2354C34.6737 42.0068 34.6825 41.8662 34.7089 38.9043L34.7352 35.8018L34.5243 35.415C34.3573 35.0898 34.1991 34.9668 33.5839 34.6328C30.6923 33.0684 29.6727 29.5703 31.2987 26.793C31.9227 25.7383 31.9139 25.7295 31.9139 27.9268C31.9139 29.9395 31.9491 30.2031 32.2919 30.5723C32.3973 30.6865 33.2235 31.1436 34.1288 31.6006C35.3944 32.2334 35.8602 32.4268 36.1327 32.4268C36.4052 32.4268 36.871 32.2334 38.1366 31.6006C39.0419 31.1436 39.868 30.6865 39.9735 30.5723C40.3163 30.2031 40.3514 29.9395 40.3514 27.9268C40.3514 25.7559 40.3427 25.7646 40.9139 26.7051C42.6102 29.4912 41.6083 33.0508 38.6815 34.6328C38.0663 34.9668 37.9081 35.0898 37.7411 35.415L37.5302 35.8018L37.5565 38.9043C37.5829 41.8662 37.5917 42.0068 37.7675 42.2354C38.1102 42.7012 38.3915 42.8418 38.9452 42.8418C39.4989 42.8418 39.7802 42.7012 40.1229 42.2354C40.2987 42.0068 40.3075 41.8574 40.3339 39.4668L40.3602 36.9355L40.8173 36.6455C41.5468 36.1797 42.8827 34.7646 43.3749 33.9473C45.3348 30.6338 44.8075 26.415 42.0741 23.6729C41.4149 23.0137 40.5009 22.3721 39.6835 21.9941C38.9012 21.6338 38.2509 21.7832 37.7675 22.4424C37.5917 22.6709 37.5829 22.8115 37.5565 25.7383L37.5302 28.7881L36.8358 29.1309L36.1327 29.4736L35.4296 29.1309L34.7352 28.7881L34.7089 25.7383C34.6825 22.8115 34.6737 22.6709 34.4979 22.4424C34.2079 22.0469 33.8827 21.8535 33.4344 21.8184C33.0741 21.7832 32.9247 21.8184 32.327 22.126Z" fill="white"/>
</svg>
